<svg width="32" height="32" viewBox="0 0 32 32" fill="none" xmlns="http://www.w3.org/2000/svg">
<rect x="0.5" y="0.5" width="31" height="31" rx="15.5" fill="white"/>
<rect x="0.5" y="0.5" width="31" height="31" rx="15.5" stroke="white"/>
<path fill-rule="evenodd" clip-rule="evenodd" d="M19.7575 6.62536C20.0754 6.80158 20.2727 7.13648 20.2727 7.5V20.5909C20.2727 20.9544 20.0754 21.2893 19.7575 21.4656C19.4395 21.6418 19.051 21.6316 18.7427 21.4389L13.5598 18.1996L14.5246 20.4677L15.4303 22.4562C15.9518 23.6244 15.4271 24.9928 14.2595 25.5139C13.0921 26.035 11.7248 25.5115 11.2029 24.3457C11.2025 24.3448 11.2021 24.344 11.2018 24.3432L7.9522 17.1571C6.79683 16.5983 6 15.415 6 14.0455C6 12.1374 7.54653 10.5909 9.45455 10.5909H12.4405L18.7427 6.652C19.051 6.45933 19.4395 6.44913 19.7575 6.62536ZM9.05775 15.4452C9.02348 15.432 8.98848 15.4206 8.95293 15.4112C8.39671 15.2069 8 14.6726 8 14.0455C8 13.242 8.6511 12.5909 9.45455 12.5909H12.7273C12.9147 12.5909 13.0983 12.5382 13.2573 12.4389L18.2727 9.30425V18.7867L13.2573 15.652C13.0983 15.5527 12.9147 15.5 12.7273 15.5H11.7661C11.7552 15.4998 11.7442 15.4998 11.7333 15.5H9.45455C9.31698 15.5 9.18388 15.4809 9.05775 15.4452ZM10.3022 17.5L13.0281 23.528C13.0993 23.6876 13.2855 23.7585 13.4443 23.6876C13.6031 23.6167 13.6742 23.432 13.605 23.2737L12.6993 21.2852C12.6958 21.2775 12.6924 21.2699 12.6891 21.2621L11.0887 17.5H10.3022ZM24.6596 9.04564C24.9357 9.52393 24.7719 10.1355 24.2936 10.4117L22.8765 11.2299C22.3982 11.506 21.7866 11.3421 21.5104 10.8638C21.2343 10.3856 21.3982 9.77397 21.8765 9.49782L23.2935 8.67964C23.7718 8.40349 24.3834 8.56735 24.6596 9.04564ZM22.3641 14.0457C22.3641 13.4934 22.8119 13.0457 23.3641 13.0457H25.0005C25.5528 13.0457 26.0005 13.4934 26.0005 14.0457C26.0005 14.5979 25.5528 15.0457 25.0005 15.0457H23.3641C22.8119 15.0457 22.3641 14.5979 22.3641 14.0457ZM21.5104 17.2272C21.7866 16.7489 22.3982 16.585 22.8765 16.8612L24.2936 17.6793C24.7719 17.9555 24.9357 18.5671 24.6596 19.0454C24.3834 19.5237 23.7718 19.6875 23.2935 19.4114L21.8765 18.5932C21.3982 18.317 21.2343 17.7055 21.5104 17.2272Z" fill="#09457D"/>
</svg>
