<svg width="32" height="32" viewBox="0 0 32 32" fill="none" xmlns="http://www.w3.org/2000/svg">
<path d="M0 16C0 7.16344 7.16344 0 16 0C24.8366 0 32 7.16344 32 16C32 24.8366 24.8366 32 16 32C7.16344 32 0 24.8366 0 16Z" fill="white"/>
<path d="M0.5 16C0.5 7.43959 7.43959 0.5 16 0.5C24.5604 0.5 31.5 7.43959 31.5 16C31.5 24.5604 24.5604 31.5 16 31.5C7.43959 31.5 0.5 24.5604 0.5 16Z" stroke="black" stroke-opacity="0.08"/>
<path fill-rule="evenodd" clip-rule="evenodd" d="M19.9228 8.74408C20.2482 9.06951 20.2482 9.59715 19.9228 9.92259L13.8453 16L19.9228 22.0774C20.2482 22.4029 20.2482 22.9305 19.9228 23.2559C19.5973 23.5814 19.0697 23.5814 18.7442 23.2559L12.0776 16.5893C11.7521 16.2638 11.7521 15.7362 12.0776 15.4107L18.7442 8.74408C19.0697 8.41864 19.5973 8.41864 19.9228 8.74408Z" fill="#181719"/>
</svg>
