<svg width="27" height="26" viewBox="0 0 27 26" fill="none" xmlns="http://www.w3.org/2000/svg">
<g clip-path="url(#clip0_2023_5178)">
<path d="M21.7033 10.6333C22.0194 11.726 22.4618 12.8548 22.6643 14.0252C23.4757 18.7167 21.0919 22.3716 16.4661 23.5602C13.702 24.2704 10.96 24.1495 8.32624 22.9847C4.98899 21.5087 3.2315 18.3272 3.67169 14.702C3.83095 13.3904 4.18127 12.1384 4.72878 10.9386C4.7791 10.8284 4.82037 10.7139 4.8797 10.5672C4.73825 10.481 4.61234 10.4017 4.48398 10.3266C2.78942 9.33492 1.93882 7.41061 2.35414 5.50672C2.77089 3.59627 4.37657 2.21462 6.40858 2.01796C8.19995 1.84459 10.0175 2.94063 10.7719 4.68421C10.9109 5.00551 11.0414 5.08442 11.3843 4.99441C12.6136 4.67178 13.8546 4.66506 15.0834 5.00282C15.4042 5.09099 15.5279 5.01292 15.6658 4.71062C16.4402 3.01196 17.7863 2.07395 19.6439 2.02457C21.4046 1.97777 22.7875 2.78113 23.6346 4.325C24.4996 5.90148 24.4372 7.52083 23.3825 8.99123C22.9292 9.62305 22.26 10.0999 21.7033 10.6333ZM5.00032 15.2079C5.00602 18.4858 6.2496 20.5412 8.82121 21.6754C11.6781 22.9354 14.5992 22.928 17.4856 21.7466C20.0431 20.6999 21.524 18.5129 21.4399 15.7461C21.333 12.2235 19.8589 9.33872 16.9349 7.32729C14.6777 5.77459 12.2384 5.6623 9.88683 7.09747C6.70764 9.03769 5.26654 12.0384 5.00032 15.2079ZM9.62191 5.62034C9.28345 4.29661 8.0206 3.35577 6.66391 3.387C5.21265 3.42041 3.99571 4.44413 3.68761 5.89073C3.4124 7.18293 4.14017 8.63854 5.31694 9.21477C5.60325 9.35497 5.69876 9.21077 5.82806 9.02557C6.66539 7.82611 7.68487 6.81419 8.92766 6.03492C9.15911 5.88979 9.39673 5.75447 9.62191 5.62034ZM22.8225 6.54412C22.8215 5.02744 21.7774 3.74915 20.3661 3.46159C18.9575 3.17461 17.5104 3.91615 16.9441 5.20536C16.8331 5.45809 16.7886 5.62426 17.1031 5.79593C18.5467 6.58399 19.7043 7.69765 20.633 9.04702C20.8026 9.2934 20.94 9.33158 21.1906 9.18461C22.2313 8.57425 22.7717 7.67061 22.8225 6.54412Z" fill="#FF8C2F"/>
<path d="M13.2164 12.4529C12.6466 14.2067 11.3721 15.0529 9.68147 15.3624C8.39414 15.5981 7.23518 15.0077 6.7301 13.8199C5.82143 11.6831 6.59774 9.47366 8.66008 8.72949C10.4277 8.09166 12.3849 9.02671 13.0177 10.7968C13.0797 10.9701 13.1318 11.1469 13.2182 11.4137C13.2829 11.2198 13.3249 11.1027 13.3611 10.9838C13.865 9.32972 15.4864 8.31026 17.1971 8.57268C18.8611 8.82794 20.1081 10.3036 20.0862 12.0109C20.0819 12.3479 20.0491 12.6898 19.9816 13.0197C19.5952 14.9101 18.0951 15.7853 16.1932 15.2434C14.7435 14.8304 13.8887 14.0394 13.2164 12.4529ZM9.68852 9.91678C8.93365 9.94715 8.25911 10.3378 7.92505 11.1558C7.57888 12.0035 7.64437 12.8663 8.23067 13.5921C8.41474 13.82 8.80341 13.9601 9.11387 13.9925C9.79905 14.0641 10.4084 13.7841 10.957 13.3845C11.746 12.8097 12.0047 12.1444 11.7554 11.3576C11.4847 10.5033 10.7057 9.92529 9.68852 9.91678ZM18.7023 12.0734C18.741 12.0572 18.7797 12.0409 18.8183 12.0247C18.6334 11.5821 18.5181 11.0904 18.2484 10.7075C17.7475 9.99663 16.9857 9.77654 16.1584 9.9776C15.3456 10.1751 14.8297 10.7336 14.6479 11.5571C14.4609 12.4046 14.9176 12.967 15.5477 13.4283C15.7199 13.5543 15.915 13.6542 16.1103 13.7425C17.6735 14.4488 18.697 13.788 18.7023 12.0734Z" fill="#FF8C2F"/>
<path d="M13.2582 15.6997C13.6223 15.7495 13.9957 15.7642 14.3484 15.8574C14.8545 15.9911 15.0723 16.3596 14.992 16.8734C14.9076 17.413 14.6357 17.8371 14.2069 18.1859C14.0572 18.3077 13.9472 18.5433 13.9227 18.7398C13.8773 19.1034 13.922 19.4773 13.9038 19.8456C13.8831 20.2632 13.6234 20.5153 13.2392 20.5278C12.8659 20.5399 12.582 20.2858 12.5353 19.8794C12.516 19.7123 12.5164 19.5405 12.5289 19.3724C12.5718 18.7968 12.5836 18.2559 11.9665 17.9131C11.7898 17.8149 11.684 17.5527 11.5917 17.3453C11.1981 16.4604 11.554 15.8574 12.5163 15.7626C12.7608 15.7385 13.0078 15.7386 13.2536 15.7276C13.2551 15.7183 13.2566 15.709 13.2582 15.6997Z" fill="#FF8C2F"/>
<path d="M10.1332 10.9377C10.7083 10.9388 11.1559 11.3838 11.162 11.9603C11.168 12.5289 10.7093 12.9924 10.142 12.9912C9.57649 12.99 9.11363 12.5311 9.1077 11.9658C9.10185 11.4089 9.57291 10.9367 10.1332 10.9377Z" fill="#FF8C2F"/>
<path d="M16.3291 10.9377C16.9 10.9485 17.3414 11.4087 17.3322 11.9835C17.3231 12.5552 16.8591 13.0036 16.2914 12.9893C15.7184 12.9749 15.2715 12.5113 15.2836 11.9437C15.2958 11.3717 15.7581 10.9268 16.3291 10.9377Z" fill="#FF8C2F"/>
</g>
<defs>
<clipPath id="clip0_2023_5178">
<rect width="21.9833" height="22" fill="white" transform="translate(2.25 2)"/>
</clipPath>
</defs>
</svg>
