<svg width="50" height="49" viewBox="0 0 50 49" fill="none" xmlns="http://www.w3.org/2000/svg">
<path d="M35.0769 31.2477C35.0364 30.7696 35.0677 30.2792 35.1814 29.7883L35.1815 29.788C35.4255 28.7362 36.0044 27.853 36.7777 27.1894C36.3644 26.4843 36.1225 25.6776 36.1225 24.811C36.1225 23.7676 36.4705 22.8123 37.0481 22.0152C35.8697 21.1402 35.0533 19.8341 34.9669 18.29L34.9669 18.2899C34.9401 17.8102 34.9869 17.343 35.0968 16.897C33.9518 16.5307 32.9449 15.8045 32.3181 14.7128C32.2575 14.6071 32.2021 14.5003 32.1516 14.3925C30.8872 14.6761 29.5503 14.5284 28.3992 13.8104C27.8846 13.4896 27.4586 13.0837 27.1198 12.6217C26.4281 12.992 25.648 13.203 24.8159 13.1939C24.8159 13.1939 24.8158 13.1939 24.8158 13.1939L24.8268 12.1939C24.1994 12.1871 23.6061 12.0212 23.0721 11.7308L35.0769 31.2477ZM35.0769 31.2477C33.8995 31.4342 32.801 31.9905 32.0131 32.9596L35.0769 31.2477ZM24.6258 35.1401C23.7938 35.1309 23.0137 35.342 22.322 35.7124C21.9832 35.2502 21.5571 34.8444 21.0427 34.5236C19.8916 33.8056 18.5548 33.658 17.2903 33.9414C17.2398 33.8336 17.1843 33.7267 17.1236 33.621C16.5305 32.5879 15.5955 31.885 14.5285 31.5033C14.7572 30.5527 14.7143 29.5396 14.3252 28.5727C14.0614 27.9165 13.6652 27.3524 13.1799 26.8896C13.6194 26.1673 13.8778 25.3349 13.8778 24.4388C13.8778 23.3952 13.5297 22.44 12.952 21.6429C14.1305 20.7679 14.9469 19.4619 15.0331 17.9175L15.0331 17.9173C15.0515 17.5873 15.0348 17.2633 14.9867 16.948C15.9236 16.6859 16.7821 16.1697 17.429 15.374C17.7248 15.0102 17.9523 14.615 18.1177 14.2016C18.9853 14.3345 19.8848 14.2484 20.7371 13.8862L20.346 12.9658L20.7371 13.8862C21.4496 13.5834 22.0436 13.1236 22.5103 12.5625L24.6147 36.1401M24.6258 35.1401L24.6147 36.1401M24.6258 35.1401C24.6257 35.1401 24.6257 35.1401 24.6257 35.1401L24.6147 36.1401M24.6258 35.1401C25.4638 35.1493 26.2444 35.3807 26.9314 35.7715M24.6147 36.1401C25.2422 36.1469 25.8355 36.3128 26.3696 36.6031C26.5295 36.3082 26.7171 36.0292 26.9314 35.7715M26.9314 35.7715C27.2228 35.9372 27.4973 36.1315 27.7522 36.3498M26.9314 35.7715C27.3982 35.2104 27.992 34.7505 28.7042 34.4478L28.7046 34.4476C29.5567 34.0857 30.4563 33.9995 31.3239 34.1325C31.4893 33.7191 31.7168 33.3238 32.0128 32.96L27.7522 36.3498M27.7522 36.3498C27.5331 36.6022 27.3457 36.8841 27.1917 37.1885L27.7522 36.3498ZM43.1075 8.71452C41.9271 6.6578 39.4606 5.91673 37.1225 6.39763C36.8128 5.23088 36.1193 4.18815 35.0339 3.51097L35.0338 3.51088C33.2606 2.40502 31.0822 2.64678 29.3404 3.74482C28.4281 2.1522 26.8533 1.02108 24.9541 1.00028L24.954 1.00028C23.2055 0.981235 21.7072 1.91296 20.7423 3.28589C19.2901 2.31863 17.4838 1.98619 15.8253 2.69063L15.8252 2.69066C14.3376 3.32261 13.382 4.61733 12.9995 6.10673C11.061 5.71023 9.0209 6.19604 7.75286 7.75534L7.75282 7.7554C6.59784 9.17588 6.46295 11.0228 7.06653 12.6804C5.00741 13.3612 3.40595 15.0678 3.28228 17.2823L3.28227 17.2824C3.21995 18.4007 3.55562 19.4397 4.15336 20.3056C2.77798 21.2392 1.83301 22.7077 1.83301 24.4388C1.83301 26.0309 2.63632 27.4043 3.83384 28.3395C3.01544 29.6726 2.76665 31.3047 3.38324 32.8367C3.8903 34.0975 4.87506 35.0103 6.05275 35.5272C5.56936 36.8575 5.59318 38.3289 6.33384 39.6195L6.33393 39.6197C7.51461 41.6761 9.98109 42.4172 12.3194 41.9362C12.629 43.1031 13.3226 44.1458 14.408 44.823L14.4082 44.8231C16.1813 45.929 18.3594 45.6872 20.1012 44.5892C21.0136 46.1818 22.5887 47.3128 24.4878 47.3337L24.488 47.3337C26.2363 47.3526 27.7346 46.4211 28.6996 45.0481C30.1517 46.0155 31.9578 46.3478 33.6164 45.6434L33.6164 45.6434C35.1044 45.0114 36.0596 43.7165 36.442 42.2273C38.3805 42.6238 40.421 42.1381 41.6891 40.5787L41.6891 40.5786C42.7183 39.3129 42.9366 37.7029 42.5443 36.1957C44.5132 35.759 46.1859 34.3877 46.655 32.3656L46.655 32.3656C46.9496 31.0952 46.6965 29.8405 46.0765 28.7821C47.3243 27.8453 48.167 26.4428 48.167 24.811C48.167 23.0798 47.222 21.6114 45.8468 20.6778C46.4445 19.8119 46.7801 18.7729 46.7177 17.6547L46.7177 17.6545C46.6001 15.5537 45.1495 13.9081 43.2451 13.1647C43.8717 11.7427 43.9169 10.1238 43.1075 8.71452ZM22.8277 36.576C22.5291 36.7323 22.248 36.927 21.9886 37.1545C21.8591 36.8366 21.6925 36.5384 21.489 36.2678L22.8277 36.576Z" fill="#F36C2D" stroke="white" stroke-width="2"/>
<path d="M19.1818 11.1903C20.1841 13.1472 19.5518 15.4465 17.7685 16.3255C15.9853 17.2045 13.7267 16.3306 12.7243 14.3736C11.7215 12.4165 12.3543 10.1174 14.1376 9.23836C15.9207 8.35933 18.1794 9.23323 19.1818 11.1903Z" fill="#F9A02B"/>
<path d="M17.903 11.8205C18.4798 12.9463 18.0745 14.2892 16.9975 14.8202C15.9202 15.3511 14.5797 14.8688 14.0035 13.7434C13.4262 12.6177 13.832 11.2747 14.9086 10.7437C15.986 10.2128 17.3264 10.6949 17.903 11.8205Z" fill="#F7CB70"/>
<path d="M31.0307 11.6577C30.0283 13.6145 30.6611 15.9136 32.444 16.793C34.2275 17.6719 36.4857 16.798 37.4886 14.8408C38.491 12.8839 37.8582 10.5848 36.075 9.70573C34.292 8.82673 32.0335 9.70077 31.0307 11.6577Z" fill="#F9A02B"/>
<path d="M32.3096 12.2881C31.733 13.4139 32.1384 14.7566 33.2151 15.2877C34.2923 15.8187 35.6332 15.3362 36.2095 14.2108C36.7863 13.085 36.381 11.742 35.3039 11.2112C34.227 10.6802 32.8862 11.1623 32.3096 12.2881Z" fill="#F7CB70"/>
<path d="M39.7015 24.7837C39.7015 32.5141 32.992 38.7809 24.7157 38.7809C16.439 38.7809 9.72949 32.5141 9.72949 24.7837C9.72949 17.0533 16.439 10.7865 24.7157 10.7865C32.992 10.7865 39.7015 17.0533 39.7015 24.7837Z" fill="#F9A02B"/>
<path d="M32.031 35.8154C30.6251 33.9998 28.3108 31.8058 24.7569 31.8292C21.3479 31.8517 18.4133 33.5591 16.6134 36.5561C18.95 37.9622 21.7296 38.7811 24.7157 38.7811C27.6282 38.7811 30.3444 38.0023 32.6449 36.6596C32.4478 36.3774 32.2471 36.0937 32.031 35.8154Z" fill="#F7CB70"/>
<path d="M17.4148 30.2338C17.4148 30.9586 16.4721 31.5467 15.3092 31.5467C14.1464 31.5467 13.2036 30.9586 13.2036 30.2338C13.2036 29.5082 14.1464 28.9203 15.3092 28.9203C16.4721 28.9203 17.4148 29.5082 17.4148 30.2338Z" fill="#F69389"/>
<path d="M35.7845 30.2338C35.7845 30.9586 34.8414 31.5467 33.6786 31.5467C32.5158 31.5467 31.5729 30.9586 31.5729 30.2338C31.5729 29.5082 32.5158 28.9203 33.6786 28.9203C34.8414 28.9203 35.7845 29.5082 35.7845 30.2338Z" fill="#F69389"/>
<path d="M33.3156 25.5123C33.3156 26.6122 32.4067 27.5043 31.2849 27.5043C30.1632 27.5043 29.2542 26.6122 29.2542 25.5123C29.2542 24.4123 30.1632 23.5201 31.2849 23.5201C32.4067 23.5201 33.3156 24.4123 33.3156 25.5123Z" fill="#5D2610"/>
<path d="M32.0757 25.2177C32.0757 25.7544 31.6322 26.1893 31.0849 26.1893C30.5376 26.1893 30.0943 25.7544 30.0943 25.2177C30.0943 24.6808 30.5376 24.2458 31.0849 24.2458C31.6322 24.2458 32.0757 24.6808 32.0757 25.2177Z" fill="white"/>
<path d="M32.5454 26.1783C32.5454 26.3387 32.4126 26.469 32.2488 26.469C32.0857 26.469 31.9532 26.3387 31.9532 26.1783C31.9532 26.0178 32.0857 25.8876 32.2488 25.8876C32.4126 25.8876 32.5454 26.0178 32.5454 26.1783Z" fill="white"/>
<path d="M31.7793 26.579C31.7793 26.7397 31.6465 26.8699 31.4833 26.8699C31.3196 26.8699 31.1868 26.7397 31.1868 26.579C31.1868 26.4187 31.3196 26.2887 31.4833 26.2887C31.6465 26.2887 31.7793 26.4187 31.7793 26.579Z" fill="white"/>
<path d="M20.508 25.5123C20.508 26.6122 19.599 27.5043 18.4774 27.5043C17.3558 27.5043 16.4466 26.6122 16.4466 25.5123C16.4466 24.4123 17.3558 23.5201 18.4774 23.5201C19.599 23.5201 20.508 24.4123 20.508 25.5123Z" fill="#5D2610"/>
<path d="M19.2683 25.2177C19.2683 25.7544 18.8247 26.1893 18.2774 26.1893C17.7301 26.1893 17.2869 25.7544 17.2869 25.2177C17.2869 24.6808 17.7301 24.2458 18.2774 24.2458C18.8247 24.2458 19.2683 24.6808 19.2683 25.2177Z" fill="white"/>
<path d="M19.7377 26.1783C19.7377 26.3387 19.6049 26.469 19.4415 26.469C19.278 26.469 19.1454 26.3387 19.1454 26.1783C19.1454 26.0178 19.278 25.8876 19.4415 25.8876C19.6049 25.8876 19.7377 26.0178 19.7377 26.1783Z" fill="white"/>
<path d="M18.9719 26.579C18.9719 26.7397 18.8391 26.8699 18.6757 26.8699C18.5122 26.8699 18.3794 26.7397 18.3794 26.579C18.3794 26.4187 18.5122 26.2887 18.6757 26.2887C18.8391 26.2887 18.9719 26.4187 18.9719 26.579Z" fill="white"/>
<path d="M28.4547 35.5435C27.7868 36.5161 26.3724 37.1871 24.7356 37.1871C23.0118 37.1871 21.5348 36.4428 20.9161 35.386" stroke="#5D2610" stroke-linecap="round" stroke-linejoin="round"/>
<path d="M22.7582 27.9694C22.7582 27.9694 23.2895 32.6977 21.6954 34.1496L27.9702 34.1867C27.9702 34.1867 26.4013 31.8787 27.1982 27.9694C27.1982 27.9694 26.8061 26.9892 25.01 26.9643C23.4658 26.9431 22.7582 27.9694 22.7582 27.9694Z" fill="#F7CB70"/>
<path d="M22.0323 31.4452C21.4274 32.3802 23.334 34.0268 24.8231 34.0268C26.3127 34.0268 28.2875 32.3785 27.6136 31.4452C26.9 30.4557 22.7556 30.3277 22.0323 31.4452Z" fill="#5D2610"/>
</svg>
