<?xml version="1.0" standalone="no"?>
<!DOCTYPE svg PUBLIC "-//W3C//DTD SVG 1.1//EN" "http://www.w3.org/Graphics/SVG/1.1/DTD/svg11.dtd">
<svg xmlns="http://www.w3.org/2000/svg" width="134" height="171" viewBox="0 0 134 171" fill="none">
<g clip-path="url(#clip0_22_4697)">
<path d="M51.8341 166.818C68.9466 162.261 81.6895 154.378 80.2963 149.211C78.903 144.043 63.9011 143.547 46.7886 148.104C29.6761 152.66 16.9332 160.543 18.3264 165.711C19.7197 170.879 34.7216 171.374 51.8341 166.818Z" fill="url(#paint0_radial_22_4697)"/>
<path d="M105.903 166.818C123.016 162.261 135.759 154.378 134.366 149.211C132.972 144.043 117.97 143.547 100.858 148.104C83.7455 152.66 71.0025 160.543 72.3958 165.711C73.789 170.879 88.7909 171.374 105.903 166.818Z" fill="url(#paint1_radial_22_4697)"/>
<path d="M80.1299 92.709C80.1299 92.709 97.5234 85.2547 104.022 85.0635C110.521 84.8724 112.623 86.9749 114.917 90.4154C117.211 93.8559 115.681 98.8254 111.094 103.413C106.507 108 97.3323 113.161 90.069 115.837L80.1299 92.709Z" fill="#FFAC43"/>
<path d="M35.5947 93.6646L9.02662 105.706C9.02662 105.706 -0.721398 110.294 2.91022 118.895C6.54184 127.496 18.9658 123.864 18.9658 123.864L48.7832 110.676C48.7832 110.676 51.268 90.4153 35.5947 93.6646Z" fill="#FFAC43"/>
<path d="M85.8633 86.2104C85.8633 86.2104 97.905 114.117 101.919 133.995C105.933 153.873 106.315 166.87 94.8467 168.017C83.3785 169.164 75.3507 159.99 71.7191 152.153C71.7191 152.153 56.8104 153.682 51.4585 151.962C51.4585 151.962 47.4446 162.665 36.1675 166.488C24.8904 170.311 16.0981 164.577 16.2892 149.859C16.4803 135.142 26.6106 107.809 40.5637 86.0193C40.5637 86.0193 86.2456 86.5927 85.8633 86.2104Z" fill="url(#paint2_linear_22_4697)"/>
<path d="M51.4585 151.962C51.4585 151.962 38.6291 136.521 46.731 104.619H75.0878C75.0878 104.619 84.5542 126.769 71.7191 152.153" fill="#F7E3D0"/>
<path d="M121.244 62.7698C126.867 68.7599 122.462 79.572 124.324 88.9121C124.324 88.9121 121.758 89.5777 118.985 86.5564C115.575 95.6369 105.505 97.1614 105.017 105.126C102.909 105.466 101.484 104.044 100.949 100.321C95.7483 106.377 77.2034 110.014 63.3561 122.299C49.5117 110.014 30.964 106.377 25.7664 100.321C25.2307 104.044 23.8056 105.466 21.6984 105.126C21.2096 97.1614 11.1404 95.6369 7.72965 86.5564C4.95689 89.5777 2.3885 88.9121 2.3885 88.9121C4.25266 79.572 -0.152282 68.7599 5.47058 62.7698C2.55696 62.1787 1.04079 60.7206 0.828125 58.4559C5.28554 55.3186 7.62473 51.9493 11.3696 43.6255C11.7258 42.8384 12.0932 42.0072 12.4743 41.1289C14.0678 36.6853 15.8381 32.6919 17.7795 29.1321C27.1224 11.9652 40.3759 4.8096 56.6203 5.31501C56.1122 3.18021 54.792 1.93467 53.2096 0.979105C58.5314 0.266596 61.5334 2.13627 63.3561 5.31501C65.1816 2.13627 68.1836 0.266605 73.5054 0.979105C71.9202 1.93467 70.6029 3.1802 70.0947 5.31501C89.7084 4.70468 104.961 15.2627 114.238 41.1289C118.668 51.3114 121.007 55.0231 125.887 58.4559C125.674 60.7206 124.158 62.1787 121.244 62.7698Z" fill="url(#paint3_linear_22_4697)"/>
<path d="M25.7662 100.32C35.6263 107.51 56.4617 115.904 63.3577 122.298V113.385C57.3149 107.615 44.4181 105.25 35.5852 102.251C26.7522 99.2519 25.2322 93.24 25.2322 93.24C23.3546 97.8788 20.8562 96.9685 18.2754 95.3216C18.2754 95.3216 23.7121 100.32 22.2742 104.634C22.2742 104.634 25.3965 103.894 25.7662 100.32Z" fill="#722A09"/>
<path d="M31.6408 32.8877C31.6408 32.8877 14.8921 50.78 19.8888 77.0919L26.7108 70.9057L31.6408 32.8877Z" fill="#722A09"/>
<path d="M4.48515 79.2442C4.48515 79.2442 5.07401 83.1334 6.74473 83.4347C8.41546 83.736 12.8525 76.697 12.8525 76.697C10.4663 83.1096 10.199 88.7246 12.8525 93.2399L7.73073 86.557L4.0332 87.4061C4.88363 85.6355 4.27972 82.2159 4.48515 79.2442Z" fill="#A54514"/>
<path d="M21.235 39.2013C21.235 39.2013 18.1916 43.7167 11.3701 43.6256C11.7264 42.8385 12.0937 42.0072 12.4748 41.129C14.0683 36.6854 15.8386 32.6919 17.7801 29.1321L21.235 39.2013Z" fill="#722A09"/>
<path d="M100.949 100.32C91.0889 107.51 70.2534 115.904 63.3574 122.298V113.385C69.4002 107.615 82.297 105.25 91.13 102.251C99.9629 99.2519 101.483 93.24 101.483 93.24C103.361 97.8788 105.859 96.9685 108.44 95.3216C108.44 95.3216 103.003 100.32 104.441 104.634C104.441 104.634 101.319 103.894 100.949 100.32Z" fill="#722A09"/>
<path d="M95.0742 32.8877C95.0742 32.8877 111.823 50.78 106.826 77.0919L100.004 70.9057L95.0742 32.8877Z" fill="#722A09"/>
<path d="M122.231 79.2442C122.231 79.2442 121.642 83.1334 119.971 83.4347C118.3 83.736 113.863 76.697 113.863 76.697C116.249 83.1096 116.517 88.7246 113.863 93.2399L118.985 86.557L122.683 87.4061C121.832 85.6355 122.436 82.2159 122.231 79.2442Z" fill="#A54514"/>
<path d="M124.81 57.659C124.833 57.6776 120.053 60.9211 114.137 56.6484C114.137 56.6484 115.082 60.2359 117.793 61.5645C120.505 62.8931 124.551 61.2656 124.551 61.2656L125.887 58.4561L124.81 57.659Z" fill="#A54514"/>
<path d="M105.48 39.2013C105.48 39.2013 108.524 43.7167 115.345 43.6256C114.989 42.8385 114.622 42.0072 114.241 41.129C112.647 36.6854 110.877 32.6919 108.935 29.1321L105.48 39.2013Z" fill="#722A09"/>
<path d="M63.4191 88.6654L63.3438 88.6598L63.3751 88.3855L63.4487 88.3909L63.4191 88.6654Z" fill="#640000"/>
<path d="M63.2963 88.6654L63.2666 88.3909L63.3433 88.3855L63.3746 88.6598C63.3592 88.6617 63.3427 88.6626 63.3265 88.6634L63.2963 88.6654Z" fill="#640000"/>
<path d="M63.3574 123.128C63.1608 123.128 62.9643 123.059 62.8075 122.919C55.1412 116.118 45.9043 111.949 38.482 108.599C33.2221 106.225 28.9131 104.28 26.2811 101.998C25.8729 103.59 25.2342 104.691 24.3458 105.344C23.5694 105.914 22.6346 106.117 21.5672 105.945C21.1845 105.883 20.8959 105.564 20.8721 105.178C20.6372 101.361 17.9529 99.1239 14.8449 96.5337C12.197 94.3273 9.22675 91.8517 7.43564 87.9952C4.70995 90.3294 2.29471 89.7435 2.18241 89.7148C1.7567 89.6048 1.49134 89.1816 1.57718 88.7506C2.27905 85.2305 2.06174 81.4482 1.85172 77.7906C1.53642 72.301 1.23704 67.0901 4.01401 63.2372C1.00435 62.2147 0.156979 60.1675 0.00364355 58.5334C-0.0241631 58.2375 0.108656 57.9495 0.351886 57.7785C4.95831 54.5364 7.18863 51.2068 11.7049 40.824C16.263 28.1252 22.4727 18.643 30.1619 12.6402C37.1177 7.20986 45.4883 4.46191 55.0602 4.46191C55.1946 4.46191 55.3291 4.46244 55.4638 4.46353C54.9698 3.3628 54.1235 2.49856 52.7821 1.6902C52.4808 1.50852 52.327 1.15664 52.3985 0.812183C52.47 0.467725 52.7511 0.206005 53.0998 0.159305C57.7341 -0.461579 61.1052 0.728763 63.3574 3.79486C65.6093 0.729032 68.9796 -0.461041 73.6149 0.159305C73.9637 0.206005 74.2447 0.467725 74.3163 0.812183C74.3878 1.15663 74.2339 1.50852 73.9327 1.6902C72.5913 2.49843 71.7453 3.36268 71.251 4.46353C71.3857 4.46244 71.5201 4.46191 71.6546 4.46191C81.2273 4.46191 89.5965 7.20945 96.5528 12.6402C104.242 18.643 110.452 28.125 115.01 40.8239C119.526 51.207 121.757 54.5367 126.363 57.7785C126.606 57.9495 126.739 58.2377 126.711 58.5335C126.558 60.1675 125.71 62.2147 122.701 63.2372C125.478 67.0901 125.178 72.301 124.863 77.7906C124.653 81.4482 124.436 85.2305 125.138 88.7506C125.223 89.1816 124.958 89.6046 124.533 89.7148C124.419 89.7435 122.006 90.3295 119.279 87.9952C117.488 91.8517 114.518 94.3271 111.87 96.5337C108.762 99.1237 106.078 101.361 105.843 105.178C105.819 105.564 105.531 105.883 105.148 105.945C104.08 106.116 103.145 105.914 102.369 105.344C101.48 104.691 100.842 103.59 100.434 101.998C97.8016 104.28 93.4927 106.225 88.2327 108.599C80.8104 111.949 71.5736 116.118 63.9073 122.919C63.7504 123.059 63.5539 123.128 63.3574 123.128ZM25.766 99.4914C26.0039 99.4914 26.2349 99.5941 26.3948 99.7804C28.5598 102.303 33.4737 104.52 39.1639 107.088C46.5133 110.405 55.6184 114.515 63.3574 121.199C71.0963 114.515 80.2014 110.405 87.5508 107.088C93.2411 104.52 98.155 102.303 100.32 99.7804C100.532 99.5337 100.868 99.4332 101.18 99.5245C101.492 99.6153 101.722 99.8801 101.769 100.202C102.048 102.137 102.595 103.453 103.35 104.009C103.614 104.202 103.915 104.312 104.261 104.34C104.81 100.26 107.729 97.8276 110.809 95.2608C113.687 92.8627 116.662 90.3829 118.209 86.2659C118.31 85.9964 118.544 85.7988 118.826 85.7438C119.11 85.6896 119.4 85.7847 119.594 85.9967C121.112 87.6494 122.513 88.0586 123.345 88.1343C122.807 84.696 123.011 81.142 123.209 77.6955C123.532 72.0631 123.838 66.7431 120.64 63.337C120.434 63.118 120.363 62.8047 120.454 62.5184C120.545 62.2321 120.785 62.0176 121.079 61.9578C124.007 61.3637 124.776 59.9863 124.997 58.8382C120.085 55.2524 117.655 51.0613 113.479 41.46C113.472 41.4433 113.465 41.4264 113.459 41.4093C104.721 17.044 90.5429 5.50944 70.1207 6.14289C69.8656 6.15112 69.6159 6.03841 69.4531 5.83852C69.2901 5.63848 69.2293 5.37407 69.289 5.12315C69.6561 3.57971 70.4152 2.47144 71.245 1.65686C67.9438 1.68358 65.6376 3.00525 64.076 5.72716C63.9283 5.98456 63.6543 6.14329 63.3574 6.14329C63.0604 6.14329 62.7864 5.98456 62.6388 5.72716C61.0771 3.00552 58.7707 1.68371 55.4697 1.65686C56.2998 2.47156 57.0589 3.57997 57.4258 5.12315C57.4854 5.3742 57.4247 5.63863 57.2617 5.83852C57.0986 6.03841 56.851 6.15274 56.5941 6.14289C36.1675 5.50864 21.9938 17.0441 13.2555 41.4093C13.2493 41.4264 13.2425 41.4433 13.2355 41.46C9.06021 51.0611 6.63039 55.2522 1.71785 58.8382C1.9384 59.9863 2.70776 61.3637 5.63563 61.9578C5.93014 62.0176 6.16932 62.2321 6.26029 62.5184C6.35153 62.8047 6.28053 63.118 6.0751 63.337C2.877 66.7431 3.18259 72.0631 3.50599 77.6955C3.70413 81.1424 3.90822 84.6965 3.36913 88.1353C4.19815 88.0597 5.60053 87.6515 7.12008 85.9967C7.31472 85.7848 7.60518 85.6897 7.88835 85.7438C8.17099 85.7987 8.40477 85.9963 8.506 86.2659C10.0523 90.3829 13.0279 92.8626 15.9059 95.2607C18.986 97.8277 21.905 100.26 22.454 104.34C22.8001 104.312 23.1008 104.202 23.3643 104.009C24.1202 103.453 24.6671 102.137 24.9459 100.202C24.9924 99.8801 25.2227 99.6153 25.5347 99.5245C25.6111 99.5022 25.6888 99.4914 25.766 99.4914Z" fill="#640000"/>
<path d="M47.3046 17.0113C43.2063 17.0735 39.1058 17.433 35.159 18.5667C35.159 18.5666 35.2402 17.029 35.2402 17.029C36.4671 17.544 37.6837 18.0834 38.8966 18.631C39.2606 18.7965 39.4215 19.2257 39.256 19.5897C39.0581 20.0006 38.6018 20.0364 38.2379 20.2871C37.5716 20.6717 36.9311 21.1069 36.3396 21.6031C35.531 22.2631 34.8253 23.0249 34.205 23.8685C34.1027 24.0185 33.8935 24.055 33.7486 23.9438C33.6277 23.8521 33.5911 23.6904 33.652 23.5579C33.8863 23.0486 34.1481 22.5423 34.4742 22.0792C35.4551 20.6572 36.7454 19.4849 38.252 18.6276C38.2521 18.6276 38.29 19.9691 38.29 19.9691C37.0602 19.5052 35.8333 19.0338 34.6162 18.538C33.9119 18.2762 33.9582 17.2141 34.6708 17.0086C36.7271 16.3721 38.8675 16.0102 41.0127 15.8856C43.1391 15.7786 45.2786 15.8905 47.3662 16.2961C47.7801 16.382 47.7321 16.998 47.3046 17.0113Z" fill="#640000"/>
<path d="M79.3493 16.2961C83.5404 15.5052 87.9356 15.7595 92.0181 17.0003C92.7627 17.202 92.8103 18.2649 92.0992 18.5381C90.8824 19.0339 89.6552 19.5053 88.4255 19.9691L88.4635 18.6277C89.4868 19.2035 90.3693 19.9148 91.172 20.7566C91.9546 21.5741 92.6061 22.5254 93.0635 23.5579C93.1368 23.7175 93.067 23.9062 92.9075 23.9796C92.7696 24.043 92.6097 23.9993 92.5216 23.8832C91.4506 22.4072 90.0562 21.1906 88.4776 20.2871C88.2615 20.165 88.0198 20.038 87.8258 19.9521C87.46 19.7905 87.2947 19.363 87.4564 18.9973C87.5385 18.8107 87.6872 18.6821 87.8638 18.6107C88.4622 18.3386 89.0645 18.0758 89.6646 17.808C90.2633 17.5367 90.8717 17.2885 91.4753 17.029L91.5565 18.5667C89.5965 18.0172 87.5982 17.6219 85.5734 17.3887C83.5303 17.1356 81.4771 17.0586 79.411 17.0113C78.9903 17.0015 78.9299 16.3801 79.3493 16.2961Z" fill="#640000"/>
<path d="M69.4782 98.3996H55.2226C25.3201 96.7127 8.20298 82.6713 16.3573 69.2256C16.3878 68.8565 16.4184 68.4901 16.455 68.1237C19.5514 33.894 33.5233 17.2141 62.3489 24.526C91.2995 17.1824 105.262 34.0337 108.289 68.556C108.307 68.7775 108.325 69.0015 108.343 69.2256C116.498 82.6713 99.3806 96.7127 69.4782 98.3996Z" fill="url(#paint4_linear_22_4697)"/>
<path d="M69.4782 98.3994H55.2226C25.3201 96.7125 8.20298 82.671 16.3573 69.2253C16.3878 68.8563 16.4184 68.4899 16.455 68.1235C16.8424 68.2369 17.059 68.3186 17.059 68.3186C13.3799 82.7448 31.8546 92.0021 62.0469 92.6294C92.2421 92.0021 110.714 82.7448 107.035 68.3186L108.289 68.5558C108.307 68.7772 108.325 69.0013 108.343 69.2253C116.498 82.671 99.3806 96.7125 69.4782 98.3994Z" fill="#C46033"/>
<path d="M69.4524 98.058C79.4084 97.3597 89.5848 95.4113 98.1229 90.7977C103.017 88.1166 107.544 84.3402 109.112 79.4078C110.198 76.1088 109.525 72.5464 107.671 69.5313C105.806 51.1425 100.599 21.9558 72.5585 23.6755C69.1998 23.8711 65.8678 24.4675 62.6077 25.2815C62.4332 25.3259 62.2559 25.3227 62.0934 25.2815C52.558 22.7428 41.3656 22.6145 33.4998 28.5854C21.2545 37.7639 18.4123 55.9772 17.0809 69.2781C17.0729 69.3637 17.0435 69.4464 17.0006 69.5181C15.7363 71.6181 14.962 73.9552 15.038 76.3154C15.0986 80.3291 17.5185 84.0023 20.7251 86.8227C29.7986 94.4855 42.9374 97.1868 55.2457 98.098C55.4414 98.1081 55.5892 98.2572 55.5724 98.4256C55.5562 98.5902 55.3901 98.7127 55.2001 98.7019C52.6607 98.5555 50.1209 98.3663 47.6003 98.033C35.4935 96.448 20.0844 91.8089 14.8949 81.3394C14.3902 80.3054 14.0434 79.1575 13.8231 78.0538C13.7762 77.7432 13.7016 77.0771 13.6647 76.7739C13.6458 76.5199 13.6578 75.7559 13.6445 75.4861C13.757 73.1951 14.512 70.9511 15.7124 68.9348L15.6311 69.1814C17.0305 53.1335 20.9569 28.5006 41.7147 23.061C48.5679 21.3098 55.8767 22.0779 62.6075 23.7687C62.6075 23.7686 62.0936 23.7686 62.0936 23.7686C68.8213 22.0659 76.1355 21.3043 82.9894 23.0519C103.749 28.4819 107.702 53.1326 109.103 69.1793C109.103 69.1794 109.018 68.9215 109.018 68.9215C110.221 70.9407 110.978 73.1889 111.091 75.4849C111.095 75.7772 111.072 76.4927 111.071 76.7756C111.054 77.105 110.942 77.7281 110.913 78.0583C110.853 78.4696 110.695 78.9101 110.619 79.3212C110.543 79.5976 110.289 80.2668 110.197 80.5539C105.659 91.1298 90.8735 95.9704 78.9962 97.8052C75.86 98.2977 72.6798 98.5621 69.5039 98.7417C68.9773 98.7571 68.9371 98.0958 69.4524 98.058Z" fill="#640000"/>
<path d="M52.4213 89.3431C33.3547 83.1903 35.0154 63.892 53.1799 60.8682C55.8779 56.6538 61.8694 56.6663 61.8694 56.6663C61.8694 56.6663 67.8159 56.6538 70.562 60.8682C88.7262 63.8919 90.3873 83.1896 71.3238 89.3427C65.1554 91.3337 58.5898 91.3336 52.4213 89.3431Z" fill="white"/>
<path d="M47.0069 45.7091C47.0069 45.7091 41.508 42.2233 37.5859 46.5072C37.5859 46.5072 43.6063 37.8559 47.0069 45.7091Z" fill="black"/>
<path d="M76.9561 45.7091C76.9561 45.7091 82.4549 42.2233 86.377 46.5072C86.377 46.5072 80.3566 37.8559 76.9561 45.7091Z" fill="black"/>
<path d="M81.3242 58.1464C83.981 58.1464 86.1347 55.9927 86.1347 53.3359C86.1347 50.6791 83.981 48.5254 81.3242 48.5254C78.6674 48.5254 76.5137 50.6791 76.5137 53.3359C76.5137 55.9927 78.6674 58.1464 81.3242 58.1464Z" fill="black"/>
<path d="M79.2948 55.9008C79.6771 55.9008 79.987 55.5909 79.987 55.2086C79.987 54.8263 79.6771 54.5164 79.2948 54.5164C78.9125 54.5164 78.6025 54.8263 78.6025 55.2086C78.6025 55.5909 78.9125 55.9008 79.2948 55.9008Z" fill="white"/>
<path d="M81.2011 54.9626C82.0964 54.9626 82.8222 54.2368 82.8222 53.3415C82.8222 52.4462 82.0964 51.7205 81.2011 51.7205C80.3059 51.7205 79.5801 52.4462 79.5801 53.3415C79.5801 54.2368 80.3059 54.9626 81.2011 54.9626Z" fill="white"/>
<path d="M44.7724 58.1464C47.4292 58.1464 49.583 55.9927 49.583 53.3359C49.583 50.6791 47.4292 48.5254 44.7724 48.5254C42.1157 48.5254 39.9619 50.6791 39.9619 53.3359C39.9619 55.9927 42.1157 58.1464 44.7724 58.1464Z" fill="black"/>
<path d="M46.7899 56.0959C47.1722 56.0959 47.4821 55.786 47.4821 55.4037C47.4821 55.0213 47.1722 54.7114 46.7899 54.7114C46.4076 54.7114 46.0977 55.0213 46.0977 55.4037C46.0977 55.786 46.4076 56.0959 46.7899 56.0959Z" fill="white"/>
<path d="M44.8828 55.1574C45.7781 55.1574 46.5038 54.4316 46.5038 53.5363C46.5038 52.6411 45.7781 51.9153 44.8828 51.9153C43.9875 51.9153 43.2617 52.6411 43.2617 53.5363C43.2617 54.4316 43.9875 55.1574 44.8828 55.1574Z" fill="white"/>
<path d="M51.7249 69.5984C51.7249 69.5984 28.4751 63.1381 20.7666 79.965" stroke="#640000" stroke-linecap="round" stroke-linejoin="round"/>
<path d="M54.0285 73.4011C54.0285 73.4011 36.2368 75.4023 34.0234 89.5575" stroke="#640000" stroke-linecap="round" stroke-linejoin="round"/>
<path d="M72.8604 69.5984C72.8604 69.5984 96.1101 63.1381 103.819 79.965" stroke="#640000" stroke-linecap="round" stroke-linejoin="round"/>
<path d="M68.6924 73.1194C68.6924 73.1194 86.4841 75.1206 88.6975 89.2757" stroke="#640000" stroke-linecap="round" stroke-linejoin="round"/>
<path d="M61.8312 64.564V71.1468C61.8312 71.1468 61.6625 77.814 55.9236 77.814C50.1847 77.814 47.1465 74.2694 47.1465 74.2694" stroke="black" stroke-width="2" stroke-linecap="round" stroke-linejoin="round"/>
<path d="M62 64.564V71.1468C62 71.1468 62.1688 77.814 67.9077 77.814C73.6465 77.814 76.6848 74.2694 76.6848 74.2694" stroke="black" stroke-width="2" stroke-linecap="round" stroke-linejoin="round"/>
<path d="M94.5574 50.7463C93.7375 43.2297 87.4778 37.7363 79.964 38.0637C74.895 38.2845 71.0138 40.7513 68.1062 44.8042C67.6783 45.4005 67.3154 45.5119 66.6369 45.3254C64.0399 44.6115 61.402 44.5261 58.8112 45.2781C57.8095 45.5689 57.3514 45.2941 56.777 44.5141C54.9289 42.0048 52.6227 40.04 49.5946 39.0474C48.8462 38.6826 48.0501 38.4941 47.2254 38.4128C46.1743 38.0855 45.0918 38.0079 44.0038 38.0721C35.6255 38.5667 29.5664 45.9704 30.7404 54.2662C30.7286 54.871 30.8467 55.4477 31.1157 55.9917C31.1257 56.0963 31.1218 56.2045 31.1477 56.3052C32.9203 63.2121 40.0837 67.9052 47.3342 66.9117C54.4574 65.9355 59.6211 59.8754 59.5225 52.6073C59.4938 50.5007 59.8601 50.099 62.0156 49.9059C62.8369 49.8324 63.6205 49.9965 64.3944 50.2787C65.2465 50.5894 65.7435 51.0524 65.573 52.061C65.4873 52.5676 65.6062 53.1086 65.6325 53.634C65.6336 54.3727 65.6907 55.1018 66.0003 55.7879C66.0332 56.03 66.0408 56.2785 66.1025 56.5129C68.1506 64.3012 75.8448 68.1584 82.9635 66.7755C90.7028 65.272 95.4158 58.6148 94.5574 50.7463ZM52.7576 63.2879C46.119 67.8488 36.4184 65.506 32.9981 57.1377C32.8264 56.7176 32.7287 56.259 32.3709 55.9354C32.3292 55.9076 32.2836 55.8868 32.2411 55.8603C32.5214 55.2826 32.4984 54.7712 32.0171 54.3598C32.0399 54.2973 32.0685 54.2414 32.0817 54.1681C32.1687 53.4329 32.1228 52.6945 32.126 51.9579C32.1525 45.7898 36.789 40.5412 42.8963 39.6131C44.3565 39.3912 45.7729 39.7981 47.2022 39.5696C47.2513 39.5495 47.2804 39.5292 47.3211 39.509C47.8058 40.0737 48.4218 40.1701 49.1189 39.9783C49.4724 40.4188 49.9877 40.6185 50.4659 40.8702C55.4991 43.5188 58.1791 47.613 58.0649 53.3559C57.9815 57.5389 56.1933 60.9273 52.7576 63.2879ZM93.189 53.3644C93.067 56.6885 91.841 59.5406 89.5087 61.8601C84.2095 67.1297 73.8615 67.1715 69.0589 59.6946C68.3053 58.5214 67.8957 57.2229 67.2859 56.0037C67.2679 55.9867 67.2541 55.9749 67.2368 55.9586C67.3127 55.8203 67.3399 55.664 67.3165 55.5055C67.1523 54.3936 67.0625 53.276 66.9996 52.1549C66.9925 52.028 66.9589 51.9071 66.9006 51.7973C66.9152 51.7536 66.922 51.7089 66.9406 51.666C67.0603 51.2967 67.1575 50.9229 67.2148 50.5397C68.2138 43.8521 76.3748 37.2788 84.8871 40.2681C87.5863 41.216 89.6366 42.9589 91.1852 45.3217C92.7884 47.7679 93.2949 50.4786 93.189 53.3644Z" fill="#640000"/>
<path d="M62.7454 45.848C64.0163 45.7529 65.2683 45.8492 66.4973 46.219C66.9979 46.3697 67.0814 46.5641 66.8777 47.0398C66.5337 47.8433 66.4729 48.8925 65.9068 49.4434C65.2615 50.0712 64.4958 49.0205 63.6885 48.9553C62.3612 48.8482 61.0815 48.9067 59.8689 49.4468C59.2771 49.7105 59.0539 49.5418 58.9207 48.9815C58.8401 48.6424 58.7019 48.3163 58.5825 47.9869C58.2046 46.9446 58.5459 46.3078 59.6063 46.0765C60.0179 45.9875 60.4325 45.8822 60.85 45.8577C61.4798 45.8206 62.1134 45.848 62.7454 45.848Z" fill="#FFAC43"/>
<path d="M58.5484 64.3234C58.5484 64.3234 65.3136 64.4832 65.6332 64.3234C65.9528 64.1636 69.735 60.9674 69.4686 59.3694C69.2023 57.7713 64.7652 56.6663 61.8699 56.6663C58.9746 56.6663 55.8414 57.1857 54.3184 59.9022C54.3184 59.9022 54.8729 62.9384 58.5484 64.3234Z" fill="black"/>
<path d="M33.8356 20.9881C30.8486 21.3888 28.0867 22.7336 25.7689 24.7353C25.7504 24.7477 25.7318 24.7642 25.7152 24.7787C24.6307 25.7227 23.6433 26.8093 22.7799 28.0095C21.9267 29.1931 21.1934 30.4863 20.5985 31.862C19.7722 33.7728 19.2186 35.8385 18.9934 37.9869C6.78504 39.5465 4.18222 25.196 11.8791 16.7513C18.948 8.99455 31.2865 9.77745 33.8356 20.9881Z" fill="#FFAC43"/>
<g opacity="0.6">
<path d="M33.5153 19.7983C29.1546 11.9568 18.5141 12.2274 12.0711 19.2963C9.43112 22.1945 7.94997 25.7579 7.60914 29.1787C7.16501 25.0989 8.57175 20.3808 11.879 16.7514C18.6896 9.2776 30.3899 9.73207 33.5153 19.7983Z" fill="white"/>
</g>
<path d="M25.7704 24.9977C25.7539 24.9233 25.7353 24.849 25.7146 24.7787C24.9627 22.1759 21.3807 21.9941 22.112 26.5201L22.7792 28.0095C22.3682 28.5796 21.9839 29.1766 21.6307 29.7963C21.2506 30.4594 20.9056 31.1494 20.5979 31.8621L18.5011 32.8805C13.4773 33.1655 12.2978 29.7426 12.8597 26.3363C13.1881 24.347 14.1115 22.366 15.2084 21.1307C19.313 16.5159 25.6506 15.8486 25.7683 24.7353C25.7704 24.8221 25.7704 24.9089 25.7704 24.9977Z" fill="#F7E3D0"/>
<path d="M25.7701 24.9977C25.7536 24.9233 25.735 24.849 25.7143 24.7787C24.9624 22.1759 21.3805 21.9941 22.1117 26.5201L22.7789 28.0095C22.3679 28.5796 21.9836 29.1766 21.6304 29.7963C19.763 19.2343 14.514 24.3883 12.8594 26.3363C13.1878 24.347 14.1112 22.366 15.2081 21.1307C19.3127 16.5159 25.6503 15.8486 25.768 24.7353C25.7701 24.8221 25.7701 24.9089 25.7701 24.9977Z" fill="#EDB196"/>
<path d="M33.2299 21.1259C32.2038 16.4666 28.8285 12.8048 23.9676 12.3713C16.9204 11.6902 10.4 17.3082 8.69009 23.9593C7.50899 28.2645 8.28776 33.6998 12.3234 36.2065C14.2969 37.4217 16.6435 37.6622 18.9498 37.6431C19.1445 37.6395 19.3049 37.797 19.3049 37.9917C19.305 38.1563 19.191 38.2943 19.0377 38.3313C17.8309 38.6224 16.5555 38.7106 15.2894 38.5447C14.0243 38.3813 12.7767 37.9486 11.6689 37.2726C4.78307 32.8622 6.06041 22.5136 10.7955 16.9546C14.7097 12.0862 21.859 9.28732 27.7995 12.0165C31.3483 13.595 33.6718 17.1332 34.4385 20.8512C34.5919 21.6554 33.4348 21.913 33.2299 21.1259Z" fill="#640000"/>
<path d="M21.8476 26.5629C21.6057 25.593 21.4863 24.4606 21.9738 23.4992C22.315 22.7501 23.2651 22.2525 24.0883 22.4404C25.2836 22.6507 26.1293 23.7636 26.3649 24.8684L25.1603 24.9965C25.1232 22.6765 24.7967 19.538 22.367 18.6C19.5342 17.6975 16.0171 20.517 14.6561 22.8749C12.8509 25.9026 12.016 31.5161 16.5235 32.4638C17.1572 32.6065 17.8214 32.6567 18.4885 32.6442C18.6202 32.6405 18.7298 32.7453 18.7322 32.8769C18.7345 33.0024 18.6384 33.1069 18.5153 33.1178C16.3561 33.3583 13.9397 32.7427 12.9032 30.6385C11.3918 27.5403 12.7441 23.0175 14.9527 20.5642C16.8613 18.4879 19.8076 16.5156 22.766 17.4416C25.7963 18.5084 26.3892 22.2285 26.3785 25.0009C26.3681 25.7336 25.3286 25.8325 25.1741 25.1253C24.866 23.4513 22.9453 22.6637 22.4842 24.6979C22.3537 25.2497 22.3407 25.8652 22.3778 26.4808C22.3945 26.8042 21.9279 26.8747 21.8476 26.5629Z" fill="#640000"/>
<path d="M93.1475 20.9881C96.1345 21.3888 98.8963 22.7336 101.214 24.7353C101.233 24.7477 101.251 24.7642 101.268 24.7787C102.352 25.7227 103.34 26.8093 104.203 28.0095C105.056 29.1931 105.79 30.4863 106.385 31.862C107.211 33.7728 107.764 35.8385 107.99 37.9869C120.198 39.5465 122.801 25.196 115.104 16.7513C108.035 8.99455 95.6965 9.77745 93.1475 20.9881Z" fill="#FFAC43"/>
<g opacity="0.6">
<path d="M93.4678 19.7983C97.8285 11.9568 108.469 12.2274 114.912 19.2963C117.552 22.1945 119.033 25.7579 119.374 29.1787C119.818 25.0989 118.411 20.3808 115.104 16.7514C108.293 9.2776 96.5932 9.73207 93.4678 19.7983Z" fill="white"/>
</g>
<path d="M101.212 24.9977C101.228 24.9233 101.247 24.849 101.268 24.7787C102.02 22.1759 105.602 21.9941 104.87 26.5201L104.203 28.0095C104.614 28.5796 104.998 29.1766 105.352 29.7963C105.732 30.4594 106.077 31.1494 106.384 31.8621L108.481 32.8805C113.505 33.1655 114.685 29.7426 114.123 26.3363C113.794 24.347 112.871 22.366 111.774 21.1307C107.669 16.5159 101.332 15.8486 101.214 24.7353C101.212 24.8221 101.212 24.9089 101.212 24.9977Z" fill="#F7E3D0"/>
<path d="M101.212 24.9977C101.228 24.9233 101.247 24.849 101.268 24.7787C102.02 22.1759 105.602 21.9941 104.87 26.5201L104.203 28.0095C104.614 28.5796 104.998 29.1766 105.352 29.7963C107.219 19.2343 112.468 24.3883 114.123 26.3363C113.794 24.347 112.871 22.366 111.774 21.1307C107.669 16.5159 101.332 15.8486 101.214 24.7353C101.212 24.8221 101.212 24.9089 101.212 24.9977Z" fill="#EDB196"/>
<path d="M93.7528 21.1259C94.7789 16.4666 98.1542 12.8048 103.015 12.3713C110.062 11.6902 116.583 17.3082 118.293 23.9593C119.474 28.2645 118.695 33.6998 114.659 36.2065C112.686 37.4217 110.339 37.6622 108.033 37.6431C107.838 37.6395 107.678 37.797 107.678 37.9917C107.678 38.1563 107.792 38.2943 107.945 38.3313C109.152 38.6224 110.427 38.7106 111.693 38.5447C112.958 38.3813 114.206 37.9486 115.314 37.2726C122.2 32.8622 120.922 22.5136 116.187 16.9546C112.273 12.0862 105.124 9.28732 99.1832 12.0165C95.6344 13.595 93.311 17.1332 92.5442 20.8512C92.3908 21.6554 93.5479 21.913 93.7528 21.1259Z" fill="#640000"/>
<path d="M105.135 26.5629C105.377 25.593 105.496 24.4606 105.008 23.4992C104.667 22.7501 103.717 22.2525 102.894 22.4404C101.699 22.6507 100.853 23.7636 100.617 24.8684L101.822 24.9965C101.859 22.6765 102.185 19.538 104.615 18.6C107.448 17.6975 110.965 20.517 112.326 22.8749C114.131 25.9026 114.966 31.5161 110.459 32.4638C109.825 32.6065 109.161 32.6567 108.494 32.6442C108.362 32.6405 108.252 32.7453 108.25 32.8769C108.248 33.0024 108.344 33.1069 108.467 33.1178C110.626 33.3583 113.042 32.7427 114.079 30.6385C115.59 27.5403 114.238 23.0175 112.029 20.5642C110.121 18.4879 107.175 16.5156 104.216 17.4416C101.186 18.5084 100.593 22.2285 100.604 25.0009C100.614 25.7336 101.654 25.8325 101.808 25.1253C102.116 23.4513 104.037 22.6637 104.498 24.6979C104.628 25.2497 104.642 25.8652 104.604 26.4808C104.588 26.8042 105.054 26.8747 105.135 26.5629Z" fill="#640000"/>
</g>
<defs>
<radialGradient id="paint0_radial_22_4697" cx="0" cy="0" r="1" gradientUnits="userSpaceOnUse" gradientTransform="translate(51.1781 156.987) rotate(-15.3074) scale(24.6137 8.47328)">
<stop stop-color="#A54514"/>
<stop offset="1" stop-color="#A54514" stop-opacity="0"/>
</radialGradient>
<radialGradient id="paint1_radial_22_4697" cx="0" cy="0" r="1" gradientUnits="userSpaceOnUse" gradientTransform="translate(105.247 156.987) rotate(-15.3074) scale(24.6137 8.47328)">
<stop stop-color="#A54514"/>
<stop offset="1" stop-color="#A54514" stop-opacity="0"/>
</radialGradient>
<linearGradient id="paint2_linear_22_4697" x1="60.3786" y1="87.6502" x2="60.3786" y2="168.385" gradientUnits="userSpaceOnUse">
<stop stop-color="#F47A3F"/>
<stop offset="1" stop-color="#FFAC43"/>
</linearGradient>
<linearGradient id="paint3_linear_22_4697" x1="63.3575" y1="0.828128" x2="63.3575" y2="122.299" gradientUnits="userSpaceOnUse">
<stop stop-color="#BB5530"/>
<stop offset="1" stop-color="#90411E"/>
</linearGradient>
<linearGradient id="paint4_linear_22_4697" x1="51.2897" y1="92.6256" x2="64.7135" y2="63.8602" gradientUnits="userSpaceOnUse">
<stop stop-color="#F47A3F"/>
<stop offset="1" stop-color="#FFAC43"/>
</linearGradient>
<clipPath id="clip0_22_4697">
<rect width="134" height="170.324" fill="white"/>
</clipPath>
</defs>
</svg>