<svg width="27" height="26" viewBox="0 0 27 26" fill="none" xmlns="http://www.w3.org/2000/svg">
<g clip-path="url(#clip0_2023_5152)">
<mask id="path-1-inside-1_2023_5152" fill="white">
<path d="M22.2496 3.00224L12.1042 3V3.00224H10.1438C8.72726 3.00224 7.57479 4.15472 7.57479 5.57133V11.721H7.56551V12.6898H7.57479V13.4144C7.57479 14.061 7.81538 14.652 8.21102 15.1041C8.21102 15.1041 8.78573 15.9401 10.1437 15.9835H16.2936V15.9854H17.2623V15.9835H18.4399L21.935 18.9675C22.0245 19.0439 22.1364 19.0836 22.2496 19.0835C22.3183 19.0835 22.3875 19.0689 22.4524 19.039C22.624 18.9599 22.7339 18.7882 22.7339 18.5992L22.734 15.9378C23.9197 15.7105 24.8186 14.6655 24.8186 13.4145V5.57133C24.8186 4.15472 23.6661 3.00224 22.2496 3.00224Z"/>
</mask>
<path d="M22.2496 3.00224L22.2493 4.00224H22.2496V3.00224ZM12.1042 3L12.1044 2L11.1042 1.99978V3H12.1042ZM12.1042 3.00224V4.00224H13.1042V3.00224H12.1042ZM7.57479 11.721V12.721H8.57479V11.721H7.57479ZM7.56551 11.721V10.721H6.56551V11.721H7.56551ZM7.56551 12.6898H6.56551V13.6898H7.56551V12.6898ZM7.57479 12.6898H8.57479V11.6898H7.57479V12.6898ZM8.21102 15.1041L9.03507 14.5376L9.00198 14.4895L8.96353 14.4455L8.21102 15.1041ZM10.1437 15.9835L10.1117 16.983L10.1277 16.9835H10.1437V15.9835ZM16.2936 15.9835H17.2936V14.9835H16.2936V15.9835ZM16.2936 15.9854H15.2936V16.9854H16.2936V15.9854ZM17.2623 15.9854V16.9854H18.2623V15.9854H17.2623ZM17.2623 15.9835V14.9835H16.2623V15.9835H17.2623ZM18.4399 15.9835L19.0893 15.223L18.8088 14.9835H18.4399V15.9835ZM21.935 18.9675L22.5843 18.207L22.5843 18.207L21.935 18.9675ZM22.2496 19.0835V18.0835L22.2492 18.0835L22.2496 19.0835ZM22.4524 19.039L22.8709 19.9472L22.8711 19.9471L22.4524 19.039ZM22.7339 18.5992L21.7339 18.5991V18.5992H22.7339ZM22.734 15.9378L22.5458 14.9556L21.734 15.1112L21.734 15.9377L22.734 15.9378ZM24.8186 5.57133H25.8186V5.5713L24.8186 5.57133ZM22.2498 2.00224L12.1044 2L12.104 4L22.2493 4.00224L22.2498 2.00224ZM11.1042 3V3.00224H13.1042V3H11.1042ZM12.1042 2.00224H10.1438V4.00224H12.1042V2.00224ZM10.1438 2.00224C8.17497 2.00224 6.57479 3.60244 6.57479 5.57133H8.57479C8.57479 4.70699 9.27956 4.00224 10.1438 4.00224V2.00224ZM6.57479 5.57133V11.721H8.57479V5.57133H6.57479ZM7.57479 10.721H7.56551V12.721H7.57479V10.721ZM6.56551 11.721V12.6898H8.56551V11.721H6.56551ZM7.56551 13.6898H7.57479V11.6898H7.56551V13.6898ZM6.57479 12.6898V13.4144H8.57479V12.6898H6.57479ZM6.57479 13.4144C6.57479 14.3139 6.91049 15.1365 7.45851 15.7627L8.96353 14.4455C8.72026 14.1676 8.57479 13.8081 8.57479 13.4144H6.57479ZM8.21102 15.1041C7.38697 15.6706 7.38727 15.6711 7.38757 15.6715C7.38768 15.6716 7.38798 15.6721 7.38819 15.6724C7.38861 15.673 7.38904 15.6736 7.38948 15.6742C7.39036 15.6755 7.39128 15.6768 7.39224 15.6782C7.39416 15.681 7.39625 15.6839 7.39851 15.6871C7.40303 15.6934 7.40822 15.7006 7.41409 15.7085C7.42584 15.7244 7.44035 15.7434 7.4577 15.765C7.49236 15.8083 7.5386 15.8626 7.59703 15.9241C7.71363 16.0469 7.88083 16.2005 8.10347 16.3528C8.55505 16.6618 9.22024 16.9545 10.1117 16.983L10.1757 14.984C9.70917 14.9691 9.40803 14.8221 9.23277 14.7022C9.14199 14.6401 9.08064 14.582 9.04704 14.5467C9.03037 14.5291 9.02111 14.5177 9.01903 14.5151C9.01801 14.5139 9.01885 14.5149 9.02151 14.5185C9.02285 14.5203 9.02464 14.5227 9.0269 14.5259C9.02803 14.5275 9.02928 14.5292 9.03064 14.5312C9.03132 14.5322 9.03203 14.5332 9.03276 14.5342C9.03313 14.5348 9.03351 14.5353 9.03389 14.5359C9.03408 14.5362 9.03438 14.5366 9.03447 14.5367C9.03477 14.5371 9.03507 14.5376 8.21102 15.1041ZM10.1437 16.9835H16.2936V14.9835H10.1437V16.9835ZM15.2936 15.9835V15.9854H17.2936V15.9835H15.2936ZM16.2936 16.9854H17.2623V14.9854H16.2936V16.9854ZM18.2623 15.9854V15.9835H16.2623V15.9854H18.2623ZM17.2623 16.9835H18.4399V14.9835H17.2623V16.9835ZM17.7906 16.7441L21.2857 19.7281L22.5843 18.207L19.0893 15.223L17.7906 16.7441ZM21.2857 19.7281C21.5597 19.962 21.9032 20.0837 22.2501 20.0835L22.2492 18.0835C22.3696 18.0835 22.4892 18.1258 22.5843 18.207L21.2857 19.7281ZM22.2496 20.0835C22.4605 20.0835 22.6726 20.0386 22.8709 19.9472L22.0338 18.1308C22.1024 18.0992 22.1762 18.0835 22.2496 18.0835V20.0835ZM22.8711 19.9471C23.3969 19.7046 23.7339 19.1785 23.7339 18.5992H21.7339C21.7339 18.3979 21.851 18.2151 22.0336 18.1309L22.8711 19.9471ZM23.7339 18.5992L23.734 15.9378L21.734 15.9377L21.7339 18.5991L23.7339 18.5992ZM22.9222 16.9199C24.5694 16.6042 25.8186 15.155 25.8186 13.4145H23.8186C23.8186 14.176 23.27 14.8168 22.5458 14.9556L22.9222 16.9199ZM25.8186 13.4145V5.57133H23.8186V13.4145H25.8186ZM25.8186 5.5713C25.8186 3.60244 24.2184 2.00224 22.2496 2.00224V4.00224C23.1138 4.00224 23.8186 4.707 23.8186 5.57135L25.8186 5.5713Z" fill="#7D7D7D" mask="url(#path-1-inside-1_2023_5152)"/>
<mask id="path-3-inside-2_2023_5152" fill="white">
<path d="M2.75 9.48778V17.3309C2.75 18.582 3.6489 19.627 4.83466 19.8542L4.83471 22.5156C4.83471 22.7046 4.94466 22.8763 5.11627 22.9555C5.18114 22.9854 5.2503 23 5.31903 23C5.43224 23.0001 5.54417 22.9604 5.63364 22.884L9.1287 19.9H10.3063V19.9019H11.2751V19.9H17.425C18.7829 19.8565 19.3576 19.0206 19.3576 19.0206C19.7533 18.5685 19.9939 17.9775 19.9939 17.3309V16.6062H20.0031V15.6375H19.9939V9.48778C19.9939 8.07118 18.8414 6.9187 17.4248 6.9187H15.4644V6.91646L5.31908 6.9187C3.90252 6.9187 2.75004 8.07118 2.75 9.48778Z"/>
</mask>
<path d="M2.75 9.48778L1.75 9.48776V9.48778H2.75ZM4.83466 19.8542L5.83466 19.8542L5.83464 19.0277L5.02287 18.8721L4.83466 19.8542ZM4.83471 22.5156H5.83471V22.5156L4.83471 22.5156ZM5.11627 22.9555L4.69744 23.8636L4.69776 23.8637L5.11627 22.9555ZM5.31903 23L5.31947 22H5.31903V23ZM5.63364 22.884L4.98433 22.1235L4.98432 22.1235L5.63364 22.884ZM9.1287 19.9V18.9H8.75988L8.47939 19.1395L9.1287 19.9ZM10.3063 19.9H11.3063V18.9H10.3063V19.9ZM10.3063 19.9019H9.30632V20.9019H10.3063V19.9019ZM11.2751 19.9019V20.9019H12.2751V19.9019H11.2751ZM11.2751 19.9V18.9H10.2751V19.9H11.2751ZM17.425 19.9V20.9H17.441L17.457 20.8995L17.425 19.9ZM19.3576 19.0206L18.6051 18.362L18.5667 18.4059L18.5336 18.454L19.3576 19.0206ZM19.9939 16.6062V15.6062H18.9939V16.6062H19.9939ZM20.0031 16.6062V17.6062H21.0031V16.6062H20.0031ZM20.0031 15.6375H21.0031V14.6375H20.0031V15.6375ZM19.9939 15.6375H18.9939V16.6375H19.9939V15.6375ZM15.4644 6.9187H14.4644V7.9187H15.4644V6.9187ZM15.4644 6.91646H16.4644V5.91624L15.4642 5.91646L15.4644 6.91646ZM5.31908 6.9187V7.9187L5.3193 7.9187L5.31908 6.9187ZM1.75 9.48778V17.3309H3.75V9.48778H1.75ZM1.75 17.3309C1.75 19.0714 2.9992 20.5207 4.64645 20.8363L5.02287 18.8721C4.29861 18.7333 3.75 18.0925 3.75 17.3309H1.75ZM3.83466 19.8542L3.83471 22.5156L5.83471 22.5156L5.83466 19.8542L3.83466 19.8542ZM3.83471 22.5156C3.83471 23.095 4.17175 23.6211 4.69744 23.8636L5.5351 22.0474C5.71757 22.1316 5.83471 22.3143 5.83471 22.5156H3.83471ZM4.69776 23.8637C4.896 23.955 5.10818 24 5.31903 24V22C5.39241 22 5.46627 22.0157 5.53479 22.0473L4.69776 23.8637ZM5.31859 24C5.66548 24.0002 6.00893 23.8785 6.28296 23.6445L4.98432 22.1235C5.07941 22.0423 5.199 21.9999 5.31947 22L5.31859 24ZM6.28295 23.6445L9.77802 20.6605L8.47939 19.1395L4.98433 22.1235L6.28295 23.6445ZM9.1287 20.9H10.3063V18.9H9.1287V20.9ZM9.30632 19.9V19.9019H11.3063V19.9H9.30632ZM10.3063 20.9019H11.2751V18.9019H10.3063V20.9019ZM12.2751 19.9019V19.9H10.2751V19.9019H12.2751ZM11.2751 20.9H17.425V18.9H11.2751V20.9ZM17.457 20.8995C18.3484 20.8709 19.0136 20.5783 19.4652 20.2693C19.6878 20.117 19.855 19.9633 19.9716 19.8406C20.03 19.7791 20.0763 19.7248 20.1109 19.6815C20.1283 19.6598 20.1428 19.6408 20.1545 19.625C20.1604 19.617 20.1656 19.6099 20.1701 19.6035C20.1724 19.6004 20.1745 19.5974 20.1764 19.5947C20.1774 19.5933 20.1783 19.592 20.1792 19.5907C20.1796 19.5901 20.18 19.5895 20.1804 19.5889C20.1807 19.5885 20.181 19.5881 20.1811 19.588C20.1814 19.5875 20.1817 19.5871 19.3576 19.0206C18.5336 18.454 18.5339 18.4536 18.5342 18.4532C18.5343 18.453 18.5346 18.4526 18.5347 18.4523C18.5351 18.4518 18.5355 18.4512 18.5359 18.4507C18.5366 18.4496 18.5373 18.4486 18.538 18.4476C18.5394 18.4457 18.5406 18.4439 18.5417 18.4424C18.544 18.4392 18.5458 18.4367 18.5471 18.4349C18.5498 18.4313 18.5506 18.4303 18.5496 18.4316C18.5475 18.4342 18.5383 18.4456 18.5216 18.4631C18.488 18.4985 18.4267 18.5565 18.3359 18.6186C18.1606 18.7385 17.8595 18.8856 17.393 18.9005L17.457 20.8995ZM20.1101 19.6791C20.6582 19.053 20.9939 18.2304 20.9939 17.3309H18.9939C18.9939 17.7245 18.8484 18.084 18.6051 18.362L20.1101 19.6791ZM20.9939 17.3309V16.6062H18.9939V17.3309H20.9939ZM19.9939 17.6062H20.0031V15.6062H19.9939V17.6062ZM21.0031 16.6062V15.6375H19.0031V16.6062H21.0031ZM20.0031 14.6375H19.9939V16.6375H20.0031V14.6375ZM20.9939 15.6375V9.48778H18.9939V15.6375H20.9939ZM20.9939 9.48778C20.9939 7.5189 19.3937 5.9187 17.4248 5.9187V7.9187C18.2891 7.9187 18.9939 8.62345 18.9939 9.48778H20.9939ZM17.4248 5.9187H15.4644V7.9187H17.4248V5.9187ZM16.4644 6.9187V6.91646H14.4644V6.9187H16.4644ZM15.4642 5.91646L5.31886 5.9187L5.3193 7.9187L15.4646 7.91646L15.4642 5.91646ZM5.31908 5.9187C3.35023 5.9187 1.75005 7.5189 1.75 9.48776L3.75 9.48781C3.75002 8.62345 4.45482 7.9187 5.31908 7.9187V5.9187Z" fill="#7D7D7D" mask="url(#path-3-inside-2_2023_5152)"/>
</g>
<defs>
<clipPath id="clip0_2023_5152">
<rect width="22.0686" height="20" fill="white" transform="translate(2.75 3)"/>
</clipPath>
</defs>
</svg>
