<svg width="30" height="31" viewBox="0 0 30 31" fill="none" xmlns="http://www.w3.org/2000/svg">
<g clip-path="url(#clip0_22_17177)">
<path d="M21.4995 5.50224L11.3541 5.5V5.50224H9.39375C7.97719 5.50224 6.82471 6.65472 6.82471 8.07133V14.221H6.81543V15.1898H6.82471V15.9144C6.82471 16.561 7.0653 17.152 7.46094 17.6041C7.46094 17.6041 8.03566 18.4401 9.39361 18.4835H15.5435V18.4854H16.5122V18.4835H17.6899L21.1849 21.4675C21.2744 21.5439 21.3863 21.5836 21.4995 21.5835C21.5683 21.5835 21.6374 21.5689 21.7023 21.539C21.8739 21.4599 21.9839 21.2882 21.9839 21.0992L21.9839 18.4378C23.1697 18.2105 24.0686 17.1655 24.0686 15.9145V8.07133C24.0685 6.65472 22.916 5.50224 21.4995 5.50224Z" fill="#EC5500"/>
<path d="M2 11.9878V19.831C2 21.082 2.8989 22.127 4.08466 22.3543L4.08471 25.0157C4.08471 25.2047 4.19466 25.3764 4.36627 25.4555C4.43114 25.4854 4.5003 25.5 4.56903 25.5C4.68224 25.5001 4.79417 25.4604 4.88364 25.384L8.3787 22.4H9.55632V22.4019H10.5251V22.4H16.675C18.0329 22.3566 18.6076 21.5206 18.6076 21.5206C19.0033 21.0685 19.2439 20.4775 19.2439 19.8309V19.1063H19.2531V18.1375H19.2439V11.9878C19.2439 10.5712 18.0914 9.41875 16.6748 9.41875H14.7144V9.4165L4.56908 9.41875C3.15252 9.41875 2.00004 10.5712 2 11.9878Z" fill="#31AD62"/>
</g>
<defs>
<clipPath id="clip0_22_17177">
<rect width="22.0686" height="20" fill="white" transform="translate(2 5.5)"/>
</clipPath>
</defs>
</svg>
