<svg width="24" height="24" viewBox="0 0 24 24" fill="none" xmlns="http://www.w3.org/2000/svg">
<g clip-path="url(#clip0_409_14194)">
<path d="M18.6441 14.4983L15.8151 19.1145C15.5045 19.6245 15.0816 20.0569 14.5786 20.3789C14.0756 20.7008 13.5059 20.9037 12.9126 20.9723C12.7563 20.9908 12.5991 21.0001 12.4416 21C11.6357 20.9989 10.8499 20.7488 10.1916 20.2838C9.51144 20.7934 8.67119 21.0425 7.82315 20.9859C6.97511 20.9294 6.17537 20.571 5.56883 19.9756C4.96229 19.3802 4.58908 18.5872 4.51681 17.7404C4.44454 16.8935 4.678 16.0488 5.17489 15.3593L4.18864 14.3745C3.76751 13.9534 3.44713 13.4424 3.25148 12.8799C3.05583 12.3173 2.98999 11.7178 3.05889 11.1262C3.12779 10.5347 3.32964 9.96633 3.64933 9.46381C3.96901 8.9613 4.39825 8.53763 4.90489 8.22452L9.23014 5.55002C10.4018 4.79911 11.7797 4.43504 13.1693 4.50918C14.559 4.58333 15.8903 5.09195 16.9754 5.96327L18.2196 4.71902C18.2888 4.64739 18.3716 4.59025 18.4631 4.55095C18.5546 4.51164 18.653 4.49095 18.7526 4.49009C18.8522 4.48922 18.9509 4.5082 19.0431 4.54591C19.1353 4.58362 19.219 4.63931 19.2894 4.70973C19.3599 4.78015 19.4155 4.86389 19.4533 4.95606C19.491 5.04823 19.5099 5.14699 19.5091 5.24657C19.5082 5.34616 19.4875 5.44457 19.4482 5.53608C19.4089 5.62758 19.3518 5.71034 19.2801 5.77952L18.0374 7.02302C18.8709 8.0672 19.3739 9.33634 19.482 10.668C19.5901 11.9997 19.2983 13.3333 18.6441 14.4983ZM9.04864 19.2353L6.25939 16.4453C6.04142 16.8351 5.95736 17.2857 6.02008 17.7278C6.08281 18.17 6.28886 18.5794 6.60664 18.8933C6.92721 19.1978 7.33495 19.3945 7.77281 19.4558C8.21068 19.5171 8.65676 19.44 9.04864 19.2353ZM16.4894 7.53527C15.6566 6.6944 14.5602 6.16504 13.3838 6.03575C12.2074 5.90647 11.0222 6.18509 10.0266 6.82502L5.69389 9.49952C5.37967 9.69375 5.11347 9.95655 4.91521 10.2682C4.71695 10.5799 4.59178 10.9324 4.54907 11.2994C4.50636 11.6663 4.54722 12.0381 4.66859 12.387C4.78995 12.7359 4.98868 13.0528 5.24989 13.314L10.7174 18.7823C10.979 19.0442 11.2966 19.2434 11.6463 19.3649C11.996 19.4864 12.3687 19.527 12.7364 19.4837C13.1041 19.4403 13.4571 19.3142 13.769 19.1148C14.0809 18.9154 14.3435 18.6478 14.5371 18.3323L17.3534 13.7385C17.9035 12.7506 18.1167 11.6103 17.9608 10.4903C17.8049 9.37038 17.2884 8.3317 16.4894 7.53152V7.53527ZM17.4486 21C17.2903 21.0003 17.1358 20.9504 17.0075 20.8576C16.8792 20.7647 16.7836 20.6336 16.7344 20.4831C16.6852 20.3325 16.6849 20.1702 16.7336 20.0195C16.7823 19.8688 16.8774 19.7373 17.0054 19.644C18.3186 18.6567 19.2074 17.207 19.4916 15.5888C19.5116 15.4914 19.5507 15.3989 19.6067 15.3167C19.6627 15.2345 19.7344 15.1643 19.8178 15.1102C19.9012 15.056 19.9945 15.0189 20.0924 15.0012C20.1902 14.9834 20.2906 14.9853 20.3877 15.0066C20.4848 15.028 20.5767 15.0685 20.658 15.1257C20.7393 15.1829 20.8085 15.2557 20.8614 15.3399C20.9143 15.4241 20.95 15.518 20.9663 15.6161C20.9826 15.7141 20.9792 15.8145 20.9564 15.9113C20.5889 17.885 19.4949 19.6493 17.8904 20.856C17.7621 20.9496 17.6074 21 17.4486 21ZM3.74989 7.30427C3.61137 7.30366 3.47572 7.26469 3.358 7.19169C3.24027 7.11869 3.14506 7.01451 3.08292 6.8907C3.02078 6.76689 2.99415 6.6283 3.00597 6.49028C3.01779 6.35226 3.06761 6.22021 3.14989 6.10877C4.37313 4.47421 6.17376 3.36776 8.18464 3.01502C8.37958 2.97524 8.58233 3.01452 8.7483 3.12423C8.91427 3.23394 9.02986 3.40509 9.06964 3.60002C9.10943 3.79496 9.07014 3.99771 8.96043 4.16368C8.85072 4.32965 8.67958 4.44524 8.48464 4.48502C6.83312 4.75774 5.35132 5.65924 4.34989 7.00052C4.28043 7.09436 4.19001 7.17068 4.08585 7.22342C3.98168 7.27615 3.86664 7.30384 3.74989 7.30427Z" fill="#4B5563"/>
</g>
<defs>
<clipPath id="clip0_409_14194">
<rect width="18" height="18" fill="white" transform="translate(3 3)"/>
</clipPath>
</defs>
</svg>
