<svg width="26" height="26" viewBox="0 0 26 26" fill="none" xmlns="http://www.w3.org/2000/svg">
<g clip-path="url(#clip0_2023_5050)">
<path d="M8.8002 20.3568C8.38439 20.3568 8.01978 20.2717 7.71785 20.1035C7.39712 19.9243 7.161 19.6783 7.01474 19.3716C6.89982 19.134 6.81623 18.8994 6.76818 18.6764C6.72953 18.492 6.70654 18.2977 6.70027 18.0976H6.44744C6.45266 18.1869 6.45789 18.2794 6.46415 18.3739C6.48504 18.6643 6.50698 18.8963 6.53101 19.0671L6.6125 19.6386L6.3743 19.8292C5.92923 20.1844 5.30762 20.3568 4.47392 20.3568C3.7541 20.3568 3.15546 20.1197 2.69369 19.6527C2.23297 19.1862 1.99998 18.574 1.99998 17.8322C1.99998 17.6426 2.00834 17.1698 2.0261 16.414C2.04281 15.6727 2.05118 15.2507 2.05118 15.1488C2.05118 14.2832 2.17758 13.5148 2.42728 12.8645C2.68533 12.1927 2.98412 11.7007 3.34142 11.3601C3.682 11.0325 4.09885 10.7688 4.5763 10.5765C5.04016 10.39 5.40791 10.284 5.70043 10.2521C6.47981 10.168 7.38872 10.2119 8.10646 10.4177C8.59017 10.5567 8.99762 10.7348 9.32044 10.9479C9.64744 11.1642 9.93475 11.4311 10.173 11.7409C10.4007 12.035 10.5804 12.3233 10.7058 12.597C10.828 12.8676 10.9241 13.1549 10.991 13.4522C11.0578 13.7468 11.0955 13.9777 11.1111 14.1438C11.1247 14.3135 11.132 14.4676 11.132 14.6097L11.0923 19.1522C10.8656 19.7018 10.2848 20.3568 8.8002 20.3568ZM5.36405 17.0278H7.82545L7.76799 18.0297C7.76904 18.1587 7.7847 18.3107 7.81501 18.4517C7.84426 18.5912 7.89963 18.7448 7.97903 18.9083C8.03022 19.0164 8.11276 19.0984 8.23917 19.169C8.37916 19.2473 8.56826 19.287 8.80019 19.287C9.70075 19.287 9.96715 19.0034 10.0622 18.8315V14.6097C10.0622 14.4948 10.057 14.371 10.0455 14.2368C10.034 14.1083 10.0006 13.9244 9.94731 13.6888C9.89612 13.4605 9.82299 13.2427 9.7321 13.0395C9.6412 12.8426 9.50539 12.6252 9.32673 12.3959C9.15958 12.1781 8.95899 11.9916 8.72915 11.8401C8.49826 11.6871 8.19006 11.5544 7.81187 11.4458C7.231 11.2796 6.46626 11.2462 5.81434 11.3157C5.68479 11.3298 5.43197 11.3857 4.97541 11.569C4.62543 11.7101 4.32349 11.8997 4.08008 12.1332C3.84292 12.3599 3.62353 12.7344 3.42607 13.2479C3.2234 13.7755 3.12101 14.4149 3.12101 15.1488C3.12101 15.2528 3.11265 15.6822 3.09593 16.4386C3.07817 17.1814 3.06982 17.6458 3.06982 17.8322C3.06982 18.2888 3.19519 18.6382 3.45428 18.901C3.71128 19.1606 4.04456 19.287 4.47394 19.287C4.88034 19.287 5.2157 19.2343 5.46121 19.1335C5.43823 18.9538 5.41629 18.726 5.39644 18.4481C5.37449 18.1248 5.36405 17.8301 5.36405 17.5627V17.0278ZM5.43197 16.1941L5.26481 15.97C5.1269 15.7866 5.08093 15.5275 5.08093 14.9435C5.08093 13.1377 6.00343 12.8682 6.55296 12.8682C7.13697 12.8682 8.11589 13.1461 8.11589 15.0078C8.11589 15.0078 8.10544 15.4737 8.08664 15.643L8.03649 16.1042L5.43197 16.1941ZM6.55296 13.938C6.45372 13.938 6.15074 13.938 6.15074 14.9435C6.15074 15.0015 6.15179 15.0532 6.15179 15.0987L7.04608 15.0678V15.0078C7.04608 13.938 6.70028 13.938 6.55296 13.938Z" fill="#B0480E"/>
<path d="M14.4125 13.1596C13.7501 13.1596 13.1045 13.1283 12.4912 13.0672C11.8634 13.004 11.412 12.9366 11.1111 12.8608L10.314 12.6869L10.2962 12.2758C10.2701 11.7054 10.2565 10.9699 10.2565 10.0698C10.2565 7.84872 10.3391 5.75977 10.5031 3.86201C10.6128 3.38352 10.9837 3.32502 11.4977 3.24404C11.8623 3.18763 12.322 3.13278 12.8778 3.08002C13.8849 2.98391 14.6758 2.97868 15.3768 3.04137C15.6996 3.06906 16.0653 3.13748 16.4623 3.24352C16.8771 3.35374 17.2417 3.50314 17.5457 3.68753C17.8821 3.89231 18.1642 4.18482 18.3877 4.55675C18.6176 4.93965 18.7335 5.38209 18.7335 5.87207C18.7335 6.26176 18.6928 6.61226 18.6134 6.91367C18.5288 7.23754 18.4254 7.48514 18.2968 7.66797C18.276 7.69775 18.2551 7.72648 18.2331 7.75468C18.324 7.82416 18.4086 7.90042 18.487 7.98452C18.6583 8.16735 18.7973 8.41181 18.9132 8.73203C19.024 9.03866 19.0804 9.39334 19.0804 9.78721C19.0804 10.8988 18.5862 11.7889 17.6502 12.3614C16.7851 12.8911 15.6954 13.1596 14.4125 13.1596ZM11.3493 11.8182L11.3546 11.8198C11.6178 11.8851 12.0316 11.9457 12.5978 12.0026C13.1755 12.0606 13.7857 12.0898 14.4125 12.0898C15.4959 12.0898 16.3975 11.8741 17.0923 11.4494C17.7191 11.0655 18.0106 10.5373 18.0106 9.78722C18.0106 9.51769 17.9761 9.28523 17.9071 9.09613C17.8225 8.86211 17.7442 8.75659 17.7055 8.71479C17.6272 8.63122 17.5384 8.56436 17.4339 8.51055C17.273 8.42749 17.1988 8.40764 17.18 8.40346C17.1184 8.3904 17.064 8.38361 17.0181 8.38361V7.3138C17.0536 7.3138 17.087 7.31014 17.1184 7.30284C17.1163 7.30284 17.156 7.28613 17.2469 7.22762C17.3116 7.18426 17.3701 7.1268 17.4203 7.05419C17.4454 7.0192 17.5091 6.91054 17.5781 6.64205C17.6355 6.42787 17.6637 6.16931 17.6637 5.87207C17.6637 5.57433 17.6 5.32411 17.4705 5.10681C17.3346 4.88167 17.1779 4.71608 16.9899 4.60168C16.7747 4.47108 16.503 4.36139 16.1865 4.27729C15.849 4.18692 15.545 4.12998 15.2838 4.107C14.6361 4.05006 13.9048 4.05842 12.9791 4.14461C12.4494 4.19528 12.0107 4.24699 11.6638 4.30132C11.6157 4.30863 11.5729 4.31542 11.5322 4.32221C11.3995 6.04132 11.3264 7.99602 11.3264 10.0698C11.3264 10.7479 11.3347 11.3308 11.3493 11.8182ZM14.4888 11.3622C14.2997 11.3622 14.1242 11.3455 13.9664 11.312L13.6081 11.2352L13.5506 10.8737C13.5109 10.6319 13.4921 10.3394 13.4921 9.97997C13.4921 9.58298 13.5099 9.21366 13.5464 8.87099L13.5799 8.55026L13.8797 8.43063C14.4564 8.20027 15.194 8.2478 15.6745 8.64115C15.9932 8.90233 16.1541 9.30508 16.1541 9.83894C16.1541 10.7928 15.5314 11.3622 14.4888 11.3622ZM14.5797 9.36097C14.5671 9.55842 14.5619 9.76476 14.5619 9.97997C14.5619 10.0907 14.564 10.1947 14.5682 10.2908C15.0843 10.272 15.0843 10.0615 15.0843 9.83894C15.0843 9.61902 15.0394 9.50357 14.9965 9.46911C14.9338 9.41687 14.7907 9.35157 14.5797 9.36097ZM14.3352 8.10155C14.1879 8.10155 14.0646 8.0864 13.956 8.05505L13.5694 7.94327V7.54104C13.5694 6.88756 13.5966 6.3187 13.6488 5.85013L13.6822 5.56021L13.9434 5.43118C14.4135 5.19716 15.0905 5.2447 15.5398 5.63491C15.8281 5.88669 15.9744 6.25548 15.9744 6.73188C15.9744 7.05313 15.8563 8.10155 14.3352 8.10155ZM14.6768 6.36153C14.6622 6.55846 14.6528 6.77107 14.6465 6.99882C14.9046 6.94606 14.9046 6.8301 14.9046 6.73189C14.9046 6.5616 14.8701 6.47018 14.8377 6.44197C14.7865 6.39809 14.7364 6.37199 14.6768 6.36153Z" fill="#06E386"/>
<path d="M13.9465 23C13.1327 23 11.7683 22.6438 11.7683 20.2571L11.8769 17.0847C11.2449 17.021 10.7841 16.6632 10.5668 16.0604C10.4592 15.7386 10.407 15.409 10.407 15.0705C10.407 14.5136 10.5198 13.9923 10.7413 13.5206L10.8437 13.3017L11.0756 13.2349C11.9177 12.9904 12.9185 12.8666 14.0489 12.8666C14.9485 12.8666 16.4581 13.2114 16.4581 15.5202L16.3515 22.2394L15.9326 22.52C15.8051 22.6046 15.6348 22.6934 15.1344 22.8381C14.7635 22.9457 14.3634 23 13.9465 23ZM12.9917 15.8127L12.8381 20.2753C12.8381 21.9302 13.5872 21.9302 13.9465 21.9302C14.2631 21.9302 14.5619 21.89 14.8377 21.8101C15.1177 21.7291 15.242 21.6795 15.2901 21.6575L15.3883 15.5119C15.3883 14.1281 14.7447 13.9364 14.0489 13.9364C13.1296 13.9364 12.3136 14.0236 11.6189 14.196C11.5249 14.4661 11.4768 14.7591 11.4768 15.0705C11.4768 15.294 11.5113 15.5093 11.5781 15.7104C11.6481 15.9052 11.7558 16.0248 12.0848 16.0248C12.1956 16.0248 12.2572 16.0144 12.2896 16.0055L12.9917 15.8127Z" fill="#FF6B00"/>
<path d="M20.3832 21.7416C19.4074 21.7416 18.1297 21.5734 16.5856 21.2417L16.3348 21.1879L16.2199 20.9575C16.0287 20.5752 15.9326 20.1406 15.9326 19.6663C15.9326 18.761 16.3505 18.015 17.1414 17.5083C17.3242 17.384 17.5885 17.2163 17.9239 17.0137C18.2394 16.822 18.4609 16.6846 18.5852 16.6015C18.7022 16.5237 18.838 16.4229 18.9916 16.3012C19.1493 16.1758 19.1849 16.1152 19.1859 16.1131C19.2057 15.9648 19.1974 15.9193 19.0887 15.8577C18.907 15.7574 18.7168 15.7078 18.5089 15.7078C18.0837 15.7078 17.7692 15.8467 17.5196 16.1455L16.9512 16.8246L16.6148 16.006C16.409 15.5061 16.3045 14.9582 16.3045 14.3773C16.3045 14.0263 16.3578 13.6977 16.4644 13.401C16.5741 13.0954 16.7611 12.795 17.0212 12.5088C17.2991 12.2037 17.7013 11.9655 18.2174 11.801C18.6949 11.6479 19.2768 11.5701 19.9465 11.5701C21.1197 11.5701 22.0391 11.9054 22.6805 12.5668C23.3168 13.2239 23.6396 14.0445 23.6396 15.0062C23.6396 15.8974 23.3638 16.7405 22.8184 17.5151L23.0002 17.3673L23.2833 17.4676C23.323 17.4817 23.3784 17.5042 23.4463 17.5381C23.6302 17.6301 23.7462 17.803 23.8454 17.9769C23.9645 18.189 24.0241 18.4455 24.0241 18.7422C24.0241 19.0222 23.9791 19.3288 23.8903 19.6532C23.6981 20.3218 23.3251 20.8426 22.7798 21.2083C22.2449 21.5672 21.4603 21.7416 20.3832 21.7416ZM17.086 20.2539C18.4316 20.5313 19.5401 20.6718 20.3832 20.6718C21.4373 20.6718 21.944 20.4801 22.1843 20.3197C22.5186 20.0951 22.7401 19.7827 22.8602 19.3648C22.9219 19.1381 22.9543 18.9266 22.9543 18.7422C22.9543 18.726 22.9543 18.7108 22.9532 18.6967C22.6753 18.8351 22.3431 18.9501 21.9524 19.0441C21.3485 19.1888 20.9118 19.2692 20.6172 19.2886C20.3414 19.3069 20.1178 19.3152 19.9465 19.3152L19.8368 18.2569C20.6914 18.0772 21.3443 17.6812 21.8343 17.0476C22.3295 16.4056 22.5698 15.7375 22.5698 15.0062C22.5698 14.3224 22.3546 13.7682 21.9116 13.3116C21.4739 12.8598 20.8314 12.6399 19.9465 12.6399C19.3886 12.6399 18.9164 12.7005 18.5434 12.8196C18.208 12.9267 17.9625 13.0646 17.8121 13.2291C17.6481 13.4099 17.5331 13.589 17.4715 13.7614C17.4067 13.9422 17.3743 14.149 17.3743 14.3773C17.3743 14.5512 17.3869 14.721 17.4099 14.885C18.044 14.5632 18.9122 14.5366 19.6101 14.9237C20.0395 15.1645 20.2756 15.5583 20.2756 16.0332C20.2756 16.2442 20.2254 16.4432 20.1262 16.624C20.0374 16.7896 19.8827 16.9593 19.656 17.139C19.4753 17.2822 19.3165 17.4002 19.1775 17.4927C19.0438 17.581 18.8119 17.7267 18.4776 17.9289C18.161 18.12 17.9134 18.2773 17.7295 18.4016C17.2302 18.7218 17.0024 19.1214 17.0024 19.6663C17.0024 19.8825 17.0296 20.0763 17.086 20.2539Z" fill="#2F8FFF"/>
</g>
<defs>
<clipPath id="clip0_2023_5050">
<rect width="22.0241" height="20" fill="white" transform="translate(2 3)"/>
</clipPath>
</defs>
</svg>
