<svg width="20" height="20" viewBox="0 0 20 20" fill="none" xmlns="http://www.w3.org/2000/svg">
<path d="M9.99848 20C4.47947 19.998 -0.00112606 15.5133 2.12286e-07 9.99236C0.00112449 4.48306 4.48562 0.00155865 9.99905 4.03164e-07C15.5059 -0.00155584 20.0061 4.50253 20 10.0095C19.9939 15.5218 15.5087 20.002 9.99848 20ZM16.0669 16.0349C16.0147 15.9938 15.9656 15.9628 15.9255 15.9227C13.9858 13.9843 12.0472 12.0447 10.1062 10.1076C10.0295 10.0311 9.99765 9.95578 9.99777 9.84709C10.0006 7.10005 10 4.35301 10 1.60597V1.44009C6.78975 1.38843 3.10548 3.4099 1.8297 7.4206C0.622095 11.217 2.20188 15.3469 5.62079 17.3652C9.21864 19.489 13.4831 18.6693 16.0669 16.0349Z" fill="#C9C9C9"/>
</svg>
