<svg width="246" height="282" viewBox="0 0 246 282" fill="none" xmlns="http://www.w3.org/2000/svg">
<mask id="mask0_383_3285" style="mask-type:luminance" maskUnits="userSpaceOnUse" x="23" y="0" width="198" height="193">
<path d="M122.201 192.86C176.721 192.86 220.918 149.772 220.918 96.6208C220.918 43.4695 176.721 0.381836 122.201 0.381836C67.6806 0.381836 23.4834 43.4695 23.4834 96.6208C23.4834 149.772 67.6806 192.86 122.201 192.86Z" fill="white"/>
</mask>
<g mask="url(#mask0_383_3285)">
<path d="M121.393 198.351C179.559 198.351 226.712 152.381 226.712 95.6753C226.712 38.9692 179.559 -7.00024 121.393 -7.00024C63.2264 -7.00024 16.0732 38.9692 16.0732 95.6753C16.0732 152.381 63.2264 198.351 121.393 198.351Z" fill="#F4ECD6"/>
<path d="M130.068 54.6826H38.9233C38.0585 54.6826 37.3574 55.3661 37.3574 56.2092V171.517C37.3574 172.36 38.0585 173.044 38.9233 173.044H130.068C130.933 173.044 131.634 172.36 131.634 171.517V56.2092C131.634 55.3661 130.933 54.6826 130.068 54.6826Z" fill="#DED6A9"/>
<path d="M126 63.4429H43.0117V87.6843H126V63.4429Z" fill="#F4ECD6"/>
<path d="M126 89.8926H43.0117V114.134H126V89.8926Z" fill="#F4ECD6"/>
<path d="M126 116.342H43.0117V140.583H126V116.342Z" fill="#F4ECD6"/>
<path d="M80.5215 138.092V140.583H94.468V138.092H80.5215Z" fill="#FEFAEC"/>
<path d="M82.4492 135.877V138.092H94.923V135.877H82.4492Z" fill="#DABC52"/>
<path d="M80.5254 133.661V135.876H92.9992V133.661H80.5254Z" fill="#DED6A9"/>
<path d="M106.725 125.402H103.887V140.583H106.725V125.402Z" fill="#FEFAEC"/>
<path d="M109.638 127.972H107.397V140.583H109.638V127.972Z" fill="#DED6A9"/>
<path d="M100.165 125.402H97.3271V140.583H100.165V125.402Z" fill="#FEFAEC"/>
<path d="M103.078 127.972H100.837V140.583H103.078V127.972Z" fill="#DED6A9"/>
<path d="M55.9104 128.458H50.9561V140.583H55.9104V128.458Z" fill="#FEFAEC"/>
<path d="M50.11 129.646H48.7158V140.583H50.11V129.646Z" fill="#DABC52"/>
<path d="M48.2675 127.9H46.0518V140.584H48.2675V127.9Z" fill="#DED6A9"/>
<path d="M78.1181 127.9H75.9023V140.584H78.1181V127.9Z" fill="#DED6A9"/>
<path d="M64.4495 129.646H59.9434V140.583H64.4495V129.646Z" fill="#DABC52"/>
<path d="M67.761 125.402H64.9229V140.583H67.761V125.402Z" fill="#FEFAEC"/>
<path d="M70.6743 127.972H68.4336V140.583H70.6743V127.972Z" fill="#DED6A9"/>
<path d="M59.0974 127.075H56.4834V140.583H59.0974V127.075Z" fill="#DED6A9"/>
<path d="M75.2299 129.209H71.1221V140.583H75.2299V129.209Z" fill="#DABC52"/>
<path d="M48.4723 76.7476H47.0781V87.6852H48.4723V76.7476Z" fill="#DABC52"/>
<path d="M46.6298 75.0007H44.4141V87.6845H46.6298V75.0007Z" fill="#DED6A9"/>
<path d="M86.886 75.5591H81.9316V87.6851H86.886V75.5591Z" fill="#FEFAEC"/>
<path d="M81.0856 76.7476H79.6914V87.6852H81.0856V76.7476Z" fill="#DABC52"/>
<path d="M79.2432 75.0007H77.0273V87.6845H79.2432V75.0007Z" fill="#DED6A9"/>
<path d="M68.4142 72.5037H65.5762V87.6854H68.4142V72.5037Z" fill="#FEFAEC"/>
<path d="M49.2314 85.1935V87.6848H63.1781V85.1935H49.2314Z" fill="#FEFAEC"/>
<path d="M51.1592 82.9787V85.1941H63.6329V82.9787H51.1592Z" fill="#DABC52"/>
<path d="M49.2354 80.7627V82.978H61.7092V80.7627H49.2354Z" fill="#DED6A9"/>
<path d="M71.3266 75.0735H69.0859V87.6845H71.3266V75.0735Z" fill="#DED6A9"/>
<path d="M76.3559 76.3113H72.248V87.6854H76.3559V76.3113Z" fill="#DABC52"/>
<path d="M116.417 72.5037H113.579V87.6854H116.417V72.5037Z" fill="#FEFAEC"/>
<path d="M119.33 75.0735H117.09V87.6845H119.33V75.0735Z" fill="#DED6A9"/>
<path d="M124.359 76.3113H120.251V87.6854H124.359V76.3113Z" fill="#DABC52"/>
<path d="M98.007 75.5591H93.0527V87.6851H98.007V75.5591Z" fill="#FEFAEC"/>
<path d="M92.2057 76.7476H90.8115V87.6852H92.2057V76.7476Z" fill="#DABC52"/>
<path d="M90.3642 75.0007H88.1484V87.6845H90.3642V75.0007Z" fill="#DED6A9"/>
<path d="M106.546 76.7476H102.04V87.6852H106.546V76.7476Z" fill="#DABC52"/>
<path d="M109.858 72.5037H107.02V87.6854H109.858V72.5037Z" fill="#FEFAEC"/>
<path d="M112.77 75.0735H110.529V87.6845H112.77V75.0735Z" fill="#DED6A9"/>
<path d="M101.193 74.1763H98.5791V87.6846H101.193V74.1763Z" fill="#DED6A9"/>
<path d="M107.788 102.008H102.834V114.134H107.788V102.008Z" fill="#FEFAEC"/>
<path d="M101.988 103.197H100.594V114.134H101.988V103.197Z" fill="#DABC52"/>
<path d="M100.145 101.451H97.9297V114.135H100.145V101.451Z" fill="#DED6A9"/>
<path d="M118.909 102.008H113.955V114.134H118.909V102.008Z" fill="#FEFAEC"/>
<path d="M113.108 103.197H111.714V114.134H113.108V103.197Z" fill="#DABC52"/>
<path d="M111.266 101.451H109.05V114.135H111.266V101.451Z" fill="#DED6A9"/>
<path d="M122.095 100.626H119.481V114.134H122.095V100.626Z" fill="#DED6A9"/>
<path d="M55.9104 102.008H50.9561V114.134H55.9104V102.008Z" fill="#FEFAEC"/>
<path d="M50.11 103.197H48.7158V114.134H50.11V103.197Z" fill="#DABC52"/>
<path d="M48.2675 101.451H46.0518V114.135H48.2675V101.451Z" fill="#DED6A9"/>
<path d="M86.2336 102.008H81.2793V114.134H86.2336V102.008Z" fill="#FEFAEC"/>
<path d="M80.4323 103.197H79.0381V114.134H80.4323V103.197Z" fill="#DABC52"/>
<path d="M78.5907 101.451H76.375V114.135H78.5907V101.451Z" fill="#DED6A9"/>
<path d="M64.4495 103.197H59.9434V114.134H64.4495V103.197Z" fill="#DABC52"/>
<path d="M67.761 98.9526H64.9229V114.134H67.761V98.9526Z" fill="#FEFAEC"/>
<path d="M70.6743 101.523H68.4336V114.134H70.6743V101.523Z" fill="#DED6A9"/>
<path d="M59.0974 100.626H56.4834V114.134H59.0974V100.626Z" fill="#DED6A9"/>
<path d="M75.7025 102.76H71.5947V114.134H75.7025V102.76Z" fill="#DABC52"/>
<path d="M89.9134 100.112L86.0449 101.458L90.7026 114.181L94.571 112.835L89.9134 100.112Z" fill="#DABC52"/>
<path d="M92.3229 100.739L90.3887 101.412L95.0458 114.136L96.9801 113.463L92.3229 100.739Z" fill="#DED6A9"/>
<path d="M161.53 82.2776H160.235V92.4375H161.53V82.2776Z" fill="#DABC52"/>
<path d="M159.819 80.6553H157.761V92.4372H159.819V80.6553Z" fill="#FDF8DD"/>
<path d="M190.114 80.6553H188.056V92.4372H190.114V80.6553Z" fill="#FDF8DD"/>
<path d="M180.054 78.3354H177.418V92.4378H180.054V78.3354Z" fill="#FEFAEC"/>
<path d="M162.236 90.1231V92.4373H175.191V90.1231H162.236Z" fill="#FEFAEC"/>
<path d="M164.026 88.0659V90.1238H175.613V88.0659H164.026Z" fill="#DABC52"/>
<path d="M162.24 86.008V88.0659H173.827V86.008H162.24Z" fill="#FDF8DD"/>
<path d="M182.76 80.7231H180.679V92.4375H182.76V80.7231Z" fill="#FDF8DD"/>
<path d="M187.432 81.8721H183.616V92.4375H187.432V81.8721Z" fill="#DABC52"/>
<path d="M168.724 58.1567H166.088V72.2591H168.724V58.1567Z" fill="#FEFAEC"/>
<path d="M171.43 60.5447H169.349V72.2591H171.43V60.5447Z" fill="#FDF8DD"/>
<path d="M176.102 61.6938H172.286V72.2593H176.102V61.6938Z" fill="#DABC52"/>
<path d="M159.555 62.0989H155.369V72.2589H159.555V62.0989Z" fill="#DABC52"/>
<path d="M162.631 58.1567H159.994V72.2591H162.631V58.1567Z" fill="#FEFAEC"/>
<path d="M165.336 60.5447H163.255V72.2591H165.336V60.5447Z" fill="#FDF8DD"/>
<path d="M154.583 59.7112H152.154V72.2591H154.583V59.7112Z" fill="#FDF8DD"/>
<path d="M177.421 59.763L175.624 60.3882L179.951 72.2071L181.747 71.5819L177.421 59.763Z" fill="#FDF8DD"/>
<path d="M191.262 72.259H150.102V74.5546H191.262V72.259Z" fill="#E4C6A3"/>
<path d="M197.316 91.8088H156.155V94.1044H197.316V91.8088Z" fill="#E4C6A3"/>
<path d="M122.052 38.6048C130.298 38.5933 136.974 32.0722 136.963 24.0395C136.951 16.0069 130.258 9.50444 122.012 9.51598C113.766 9.52751 107.09 16.0486 107.101 24.0813C107.113 32.114 113.806 38.6164 122.052 38.6048Z" fill="#E4C6A3"/>
<path d="M135.159 23.2583C135.614 30.3201 130.106 36.4041 122.857 36.8472C115.608 37.2904 109.362 31.9249 108.907 24.8632C108.452 17.8015 113.96 11.7176 121.209 11.2744C128.459 10.8312 134.704 16.1966 135.159 23.2583Z" fill="#DA9B52"/>
<path d="M109.117 23.8312V24.1626H113.544V23.8312H109.117Z" fill="#FDF8DD"/>
<path d="M130.549 23.8312V24.1626H134.976V23.8312H130.549Z" fill="#FDF8DD"/>
<path d="M122.184 11.5684H121.844V15.8812H122.184V11.5684Z" fill="#FDF8DD"/>
<path d="M122.184 32.3613H121.844V36.6742H122.184V32.3613Z" fill="#FDF8DD"/>
<path d="M122.399 24.0616C122.399 24.2588 122.235 24.4186 122.032 24.4186C121.83 24.4186 121.666 24.2588 121.666 24.0616C121.666 23.8644 121.83 23.7046 122.032 23.7046C122.235 23.7046 122.399 23.8644 122.399 24.0616Z" fill="#FDF8DD"/>
<path d="M122.033 24.2211C121.991 24.2211 121.949 24.2054 121.917 24.1743L115.332 17.7595C115.268 17.6972 115.268 17.5961 115.332 17.5338C115.396 17.4715 115.5 17.4715 115.564 17.5338L122.149 23.9486C122.213 24.0109 122.213 24.112 122.149 24.1743C122.117 24.2054 122.075 24.2211 122.033 24.2211Z" fill="#FDF8DD"/>
<path d="M124.15 30.5442C124.123 30.5308 124.101 30.5074 124.091 30.4769L121.962 24.2138C121.941 24.153 121.975 24.0873 122.038 24.0672C122.1 24.047 122.168 24.0801 122.188 24.1409L124.317 30.404C124.338 30.4649 124.304 30.5305 124.241 30.5507C124.21 30.5607 124.178 30.5575 124.15 30.5442Z" fill="#FDF8DD"/>
</g>
<path d="M64.5125 195.621C64.5125 192.65 50.2186 190.241 32.5863 190.241C14.954 190.241 0.660156 192.65 0.660156 195.621C0.660156 198.591 14.954 201 32.5863 201C50.2186 201 64.5125 198.591 64.5125 195.621Z" fill="url(#paint0_radial_383_3285)"/>
<path fill-rule="evenodd" clip-rule="evenodd" d="M49.5283 181.689C49.4931 181.953 49.4552 182.216 49.4127 182.477C49.3657 182.772 49.3113 183.063 49.2546 183.355C49.1868 183.709 49.1142 184.057 49.0318 184.405C48.9857 184.601 48.9396 184.796 48.8884 184.991C48.4193 186.82 47.7777 188.547 46.9929 190.141C46.0253 192.104 44.8341 193.866 43.4757 195.355C42.848 196.045 42.1818 196.674 41.4869 197.242L38.7057 197.181L36.9217 197.144L36.6273 197.137L31.9383 197.035L22.6669 196.833C21.963 196.205 21.2977 195.511 20.6782 194.754C20.2109 194.189 19.7704 193.59 19.3589 192.961C17.2005 189.678 15.7628 185.56 15.3476 181.03C15.2468 179.918 15.2072 178.78 15.233 177.622C15.2448 177.169 15.2638 176.718 15.2924 176.275C15.3805 174.986 14.7347 174.534 14.9797 173.316L38.0928 172.988L39.8299 173.025L45.229 173.143L47.2925 173.188L49.4626 173.234C49.6126 174.223 49.7141 175.236 49.7625 176.268C49.7837 176.708 49.7947 177.153 49.7957 177.603C49.7955 177.859 49.7928 178.115 49.7877 178.37C49.7636 179.497 49.6762 180.606 49.5283 181.689Z" fill="#FDF8DD"/>
<path d="M53.617 134.812L39.9708 173.263L38.8787 174.912C38.782 174.919 38.6845 174.926 38.5859 174.932L38.6396 173.906L38.6467 173.763L38.6475 173.755L38.6971 172.793L39.0029 166.911C39.0086 166.881 39.0145 166.849 39.0208 166.817V166.815C39.4768 164.409 40.6505 161.147 42.1528 157.61C46.6178 147.095 54.3074 135.001 53.617 134.812Z" fill="#FDF8DD"/>
<path fill-rule="evenodd" clip-rule="evenodd" d="M48.6292 182.526C48.5939 182.79 48.5561 183.053 48.5135 183.314C48.4665 183.609 48.4122 183.9 48.3554 184.192C48.2876 184.545 48.2151 184.894 48.1326 185.242C48.0865 185.438 48.0403 185.633 47.9893 185.828C47.5201 187.657 46.8786 189.384 46.0936 190.978C45.1262 192.941 43.9349 194.703 42.5766 196.192C41.9488 196.882 41.2826 197.511 40.5878 198.079L37.8066 198.018L36.0224 197.981L35.728 197.974L31.0391 197.872L21.7677 197.67C21.0638 197.042 20.3985 196.348 19.779 195.591C19.3118 195.026 18.8712 194.427 18.4598 193.798C16.3014 190.515 14.8636 186.397 14.4484 181.866C14.3477 180.755 14.308 179.617 14.3339 178.459C14.3456 178.006 14.3647 177.555 14.3932 177.112C14.4813 175.823 14.6495 174.562 14.8945 173.344L37.1937 173.825L38.9308 173.862L44.3298 173.98L46.3934 174.025L48.5634 174.071C48.7135 175.06 48.815 176.073 48.8634 177.105C48.8846 177.545 48.8956 177.99 48.8965 178.44C48.8964 178.696 48.8936 178.952 48.8885 179.207C48.8644 180.334 48.7771 181.442 48.6292 182.526Z" fill="#B7A07E"/>
<path style="mix-blend-mode:multiply" opacity="0.65" fill-rule="evenodd" clip-rule="evenodd" d="M14.3341 178.458C14.3077 179.617 14.3478 180.755 14.4486 181.866C15.0479 188.429 17.797 194.123 21.7661 197.671L40.5895 198.079C41.2831 197.51 41.948 196.883 42.5763 196.194C43.9356 194.703 45.1269 192.943 46.0945 190.979C46.1784 190.809 46.3226 190.634 46.5128 190.457C46.4441 190.487 46.3733 190.514 46.3027 190.542C41.5964 192.458 35.5848 193.234 30.3757 191.563C21.44 188.7 20.8296 180.96 22.7269 173.512L14.893 173.343C14.649 174.563 14.4801 175.824 14.3947 177.112C14.3646 177.557 14.3443 178.007 14.3341 178.458Z" fill="url(#paint1_linear_383_3285)"/>
<path fill-rule="evenodd" clip-rule="evenodd" d="M15.2031 173.35C15.2031 173.35 16.8778 174.212 20.9447 174.941C22.0657 175.14 23.3701 175.33 24.8707 175.489C26.8023 175.695 29.0619 175.848 31.6798 175.905C34.1544 175.958 36.3131 175.912 38.1792 175.803C38.4718 175.787 38.7574 175.77 39.0345 175.749C45.6096 175.284 48.2566 174.066 48.2566 174.066C28.7416 172.91 15.2031 173.35 15.2031 173.35Z" fill="#FDF8DD"/>
<path fill-rule="evenodd" clip-rule="evenodd" d="M43.6279 174.321C43.6279 174.321 41.9961 175.071 37.9951 175.44C37.8224 175.456 37.645 175.47 37.4629 175.484C37.3438 175.495 37.2219 175.503 37.0987 175.512C36.9009 175.527 36.6991 175.539 36.492 175.551C36.4536 175.553 36.4144 175.556 36.376 175.558C36.2792 175.563 36.1817 175.569 36.0832 175.573C36.0779 175.574 36.0721 175.574 36.0669 175.574C35.5362 175.601 34.9736 175.62 34.3786 175.63C34.3723 175.63 34.3652 175.63 34.3583 175.631C33.5902 175.644 32.7677 175.642 31.8897 175.623C31.7936 175.621 31.6981 175.619 31.6038 175.617C31.0502 175.602 30.5217 175.582 30.0143 175.557C29.8805 175.55 29.7496 175.542 29.6204 175.535C29.3482 175.52 29.0818 175.502 28.8218 175.485C28.6985 175.476 28.5788 175.466 28.4601 175.458C28.2619 175.441 28.0682 175.425 27.8776 175.409C27.845 175.405 27.8142 175.403 27.7822 175.399C27.6008 175.383 27.4224 175.366 27.2486 175.348C27.1888 175.343 27.1289 175.336 27.0685 175.33C27.0366 175.326 27.004 175.322 26.972 175.32C26.958 175.319 26.9447 175.317 26.9307 175.315C26.2875 175.244 25.6969 175.166 25.1576 175.084C24.8906 175.044 24.6351 175.002 24.3933 174.96C24.3579 174.953 24.3236 174.947 24.2888 174.941C24.2604 174.936 24.2319 174.931 24.2035 174.925C21.3847 174.413 20.2217 173.815 20.2217 173.815C20.2217 173.815 21.4319 173.774 23.6109 173.759C23.8655 173.757 24.1335 173.756 24.4142 173.755C24.6409 173.755 24.8762 173.755 25.1185 173.755C25.4779 173.755 25.8554 173.755 26.2503 173.757C26.4856 173.758 26.7274 173.76 26.9749 173.761C27.103 173.762 27.2305 173.764 27.3616 173.765C27.488 173.766 27.6143 173.767 27.7437 173.767C27.767 173.767 27.7896 173.768 27.813 173.768C27.856 173.769 27.8991 173.77 27.9422 173.77C28.011 173.771 28.0803 173.772 28.1502 173.772C28.2701 173.774 28.3912 173.775 28.5141 173.776C28.5794 173.776 28.6451 173.777 28.7121 173.779C28.7569 173.779 28.8018 173.78 28.8467 173.781C28.9683 173.783 29.0912 173.784 29.2152 173.786C29.3614 173.788 29.5093 173.79 29.6584 173.793C29.7848 173.795 29.9111 173.796 30.0404 173.799C30.225 173.802 30.4119 173.806 30.6005 173.809C31.7564 173.832 32.9941 173.861 34.3044 173.901C34.486 173.907 34.6682 173.913 34.8527 173.919C35.1525 173.928 35.4558 173.939 35.7625 173.95C35.9057 173.955 36.0494 173.96 36.1944 173.965L36.2054 173.965C36.2613 173.968 36.3183 173.97 36.3748 173.972C36.6292 173.981 36.8858 173.991 37.1448 174.002C37.313 174.008 37.4818 174.015 37.6518 174.022C37.8106 174.029 37.9706 174.035 38.1319 174.042C39.873 174.115 41.7094 174.208 43.6279 174.321Z" fill="#514D47"/>
<path d="M28.097 172.516L28.7774 174.589C28.1342 174.494 27.5435 174.391 27.0043 174.281C26.7372 174.228 26.4818 174.173 26.2399 174.116C26.2045 174.106 26.1703 174.099 26.1354 174.091L26.0502 174.07C25.8465 173.647 25.6482 173.122 25.4575 172.518C23.7664 167.183 20.292 155.522 20.292 155.522L28.097 172.516Z" fill="url(#paint2_linear_383_3285)"/>
<path d="M39.0768 164.262C39.0499 165.085 39.0178 165.936 38.9801 166.815C38.9016 168.679 38.7987 170.67 38.6674 172.793C38.648 173.11 38.6273 173.431 38.6067 173.755C38.6034 173.81 38.5996 173.864 38.5957 173.919C38.5743 174.254 38.5522 174.592 38.5289 174.933C37.9982 174.969 37.4356 174.994 36.8406 175.008L36.8222 175.097L36.8202 175.009C36.0521 175.026 35.2297 175.024 34.3517 174.999C34.2556 174.996 34.1601 174.993 34.0658 174.99C33.8066 174.445 33.4664 173.664 33.0625 172.585C32.7774 171.822 32.4603 170.911 32.1171 169.83C31.7307 168.61 31.3109 167.174 30.8672 165.492C30.7038 164.871 30.5367 164.217 30.3668 163.528C29.8988 161.629 29.4093 159.464 28.9063 156.999C28.6075 155.534 28.3467 154.09 28.1199 152.677C25.9789 139.354 26.8268 128.755 26.8268 128.755L34.2291 153.881L34.3068 154.143L34.5297 154.901L36.5172 161.647L34.8828 152.718L34.8807 152.705L29.2544 121.964L32.1187 128.528L38.2969 142.686C38.2969 142.686 38.7036 144.446 38.9715 148.776C39.1047 150.925 39.2033 153.708 39.2013 157.224C39.1995 159.306 39.1629 161.645 39.0768 164.262Z" fill="url(#paint3_linear_383_3285)"/>
<path d="M54.024 134.011L39.6066 172.841L38.8377 174.912C38.7409 174.919 38.6435 174.926 38.5449 174.932L38.5986 173.906L38.6057 173.763L38.6065 173.755L38.6561 172.792L38.9619 166.911C38.9676 166.88 38.9734 166.849 38.9798 166.817V166.815C39.4357 164.409 40.6094 161.147 42.1117 157.609C46.5768 147.095 53.9471 134.147 54.024 134.011Z" fill="url(#paint4_linear_383_3285)"/>
<path d="M37.6494 165.955C38.0827 156.17 48.0342 130.139 48.0342 130.139L38.3979 174.836L37.6494 165.955Z" fill="url(#paint5_linear_383_3285)"/>
<path d="M38.7097 139.692C38.0291 132.768 45.5323 114.723 45.5323 114.723L39.7396 150.566L38.7097 139.692Z" fill="url(#paint6_linear_383_3285)"/>
<path d="M28.4559 161.775C28.2652 153.735 17.209 134.956 17.209 134.956L28.7999 174.393L28.4559 161.775Z" fill="url(#paint7_linear_383_3285)"/>
<path d="M48.4651 118.908L44.4277 141L39.9351 162.588L38.8179 167.957L38.173 171.057L37.6989 173.334L37.6805 173.423L37.6784 173.335L37.6247 171.034L37.4574 163.824L37.3779 160.405C37.4426 159.486 37.5546 158.485 37.7081 157.415C38.1389 154.403 38.8958 150.852 39.8297 147.102C39.9711 146.534 40.1166 145.961 40.2657 145.385C40.9306 142.813 41.6667 140.174 42.4266 137.573C45.9195 125.62 48.4119 119.056 48.4651 118.908Z" fill="#FDF8DD"/>
<path d="M49.122 115.993L43.5693 142.674L39.0767 164.261L37.9595 169.631L37.3146 172.731L36.8405 175.008L36.8221 175.097L36.82 175.009L36.7663 172.708L36.599 165.498L36.5195 162.079C36.5842 161.16 36.6962 160.159 36.8497 159.089C37.2805 156.077 38.0374 152.526 38.9713 148.776C39.1127 148.208 39.2582 147.635 39.4073 147.059C40.0722 144.487 40.8083 141.848 41.5682 139.247C45.0611 127.294 49.0687 116.14 49.122 115.993Z" fill="url(#paint8_linear_383_3285)"/>
<path d="M37.0839 145.236C37.0923 137.979 26.3662 115.336 26.3662 115.336L36.7304 166.141L37.0839 145.236Z" fill="url(#paint9_linear_383_3285)"/>
<path d="M28.8869 168.49C28.4725 164.274 33.0413 153.286 33.0413 153.286L29.514 175.111L28.8869 168.49Z" fill="url(#paint10_linear_383_3285)"/>
<path fill-rule="evenodd" clip-rule="evenodd" d="M41.6964 177.633C42.8037 176.553 44.1725 177.15 44.1725 177.633C44.1725 178.116 43.6772 178.598 43.182 178.598C42.6868 178.598 41.2011 178.116 41.6964 177.633Z" fill="#DABC52"/>
<g filter="url(#filter0_d_383_3285)">
<path d="M191.289 139.483L194.272 134.849C194.64 134.277 195.273 133.932 195.953 133.932H201.421C203.491 133.932 204.198 136.69 202.383 137.685L193.933 142.319C192.114 143.317 190.167 141.228 191.289 139.483Z" fill="white"/>
<rect x="177" y="106" width="63.7401" height="30.7958" rx="12" fill="white"/>
<path d="M184.563 124.425C184.563 124.191 184.669 123.939 184.862 123.681L186.638 121.373L184.827 119.117C184.628 118.876 184.522 118.625 184.522 118.373C184.522 117.787 184.997 117.341 185.601 117.341C186.028 117.341 186.245 117.494 186.749 118.179L188.067 119.984H188.167L189.368 118.179C189.796 117.535 190.06 117.341 190.511 117.341C191.12 117.341 191.589 117.792 191.589 118.373C191.589 118.613 191.489 118.865 191.284 119.117L189.45 121.419L191.331 123.681C191.524 123.916 191.63 124.173 191.63 124.425C191.63 125.005 191.161 125.457 190.552 125.457C190.136 125.457 189.948 125.322 189.403 124.619L188.097 122.919H187.997L186.784 124.619C186.298 125.287 186.069 125.457 185.636 125.457C185.032 125.457 184.563 125.005 184.563 124.425ZM192.386 117.476C192.386 116.878 192.866 116.451 193.552 116.451C194.231 116.451 194.712 116.878 194.712 117.476C194.712 118.085 194.231 118.513 193.552 118.513C192.866 118.513 192.386 118.085 192.386 117.476ZM194.671 124.232C194.671 125.029 194.278 125.457 193.552 125.457C192.825 125.457 192.433 125.029 192.433 124.232V120.277C192.433 119.48 192.825 119.052 193.552 119.052C194.278 119.052 194.671 119.48 194.671 120.277V124.232ZM202.06 124.244C202.06 125.035 201.661 125.457 200.94 125.457C200.214 125.457 199.821 125.023 199.821 124.232V121.865C199.821 121.238 199.517 120.839 199.007 120.839C198.485 120.839 198.146 121.255 198.146 121.923V124.232C198.146 125.023 197.747 125.457 197.026 125.457C196.3 125.457 195.901 125.023 195.901 124.232V120.224C195.901 119.492 196.323 119.052 196.991 119.052C197.647 119.052 198.034 119.416 198.069 120.101V120.166H198.181C198.397 119.48 199.136 119.011 200.009 119.011C201.321 119.011 202.06 119.832 202.06 121.296V124.244ZM205.294 122.498V121.876C205.294 120.148 206.407 118.929 208.417 118.929C209.226 118.929 209.946 119.146 210.415 119.486C210.772 119.75 211.001 120.089 211.001 120.458C211.001 120.939 210.655 121.302 210.151 121.302C209.817 121.302 209.606 121.138 209.39 120.992C209.173 120.816 208.933 120.675 208.587 120.675C207.925 120.675 207.614 121.197 207.614 122V122.386C207.614 123.259 207.825 123.822 208.604 123.822C208.997 123.822 209.243 123.652 209.483 123.47C209.688 123.33 209.876 123.183 210.204 123.183C210.72 123.183 211.019 123.523 211.019 124.003C211.019 124.396 210.761 124.794 210.304 125.082C209.835 125.38 209.19 125.568 208.405 125.568C206.495 125.568 205.294 124.501 205.294 122.498ZM218.243 124.232C218.243 125.023 217.845 125.457 217.124 125.457C216.397 125.457 215.999 125.023 215.999 124.232V121.865C215.999 121.214 215.694 120.839 215.167 120.839C214.646 120.839 214.294 121.273 214.294 121.923V124.232C214.294 125.023 213.896 125.457 213.175 125.457C212.442 125.457 212.05 125.023 212.05 124.232V118.15C212.05 117.353 212.448 116.919 213.175 116.919C213.901 116.919 214.294 117.353 214.294 118.15V120.166H214.405C214.616 119.48 215.343 119.011 216.181 119.011C217.481 119.011 218.243 119.843 218.243 121.296V124.232ZM221.665 118.238L221.032 117.541C220.933 117.423 220.874 117.259 220.874 117.089C220.874 116.703 221.185 116.392 221.56 116.392C221.747 116.392 221.923 116.416 222.104 116.679L222.638 117.412C222.72 117.523 222.772 117.664 222.772 117.81C222.772 118.167 222.485 118.466 222.146 118.466C221.952 118.466 221.782 118.373 221.665 118.238ZM222.772 124.654C222.515 125.152 221.911 125.462 221.179 125.462C219.948 125.462 219.11 124.695 219.11 123.564C219.11 122.375 220.013 121.654 221.495 121.648H222.778V121.255C222.778 120.839 222.485 120.605 222.011 120.605C221.606 120.605 221.302 120.781 220.985 120.945C220.774 121.05 220.552 121.132 220.218 121.132C219.743 121.132 219.456 120.816 219.456 120.394C219.456 120.001 219.726 119.603 220.347 119.328C220.78 119.128 221.378 119.011 222.157 119.011C223.979 119.011 225.017 119.843 225.017 121.291V124.285C225.017 125.046 224.624 125.457 223.933 125.457C223.376 125.457 222.983 125.181 222.884 124.689V124.654H222.772ZM221.302 123.382C221.302 123.734 221.601 123.992 222.011 123.992C222.438 123.992 222.778 123.71 222.778 123.359V122.785H222.069C221.606 122.785 221.302 123.019 221.302 123.382ZM228.966 118.929C230.888 118.929 232.112 120.107 232.112 121.976V122.451C232.112 124.437 230.888 125.568 228.966 125.568C227.032 125.568 225.802 124.437 225.802 122.462V121.994C225.802 120.107 227.032 118.929 228.966 118.929ZM228.96 120.558C228.427 120.558 228.122 121.039 228.122 121.947V122.544C228.122 123.441 228.427 123.939 228.96 123.939C229.505 123.939 229.792 123.441 229.792 122.544V121.947C229.792 121.039 229.505 120.558 228.96 120.558Z" fill="#B0480E"/>
</g>
<path d="M108.833 272.818C125.946 268.261 138.689 260.378 137.295 255.211C135.902 250.043 120.9 249.547 103.788 254.104C86.6752 258.66 73.9322 266.543 75.3255 271.711C76.7187 276.879 91.7206 277.374 108.833 272.818Z" fill="url(#paint11_radial_383_3285)"/>
<path d="M162.903 272.818C180.016 268.261 192.759 260.378 191.366 255.211C189.972 250.043 174.97 249.547 157.858 254.104C140.745 258.66 128.003 266.543 129.396 271.711C130.789 276.879 145.791 277.374 162.903 272.818Z" fill="url(#paint12_radial_383_3285)"/>
<path d="M137.129 198.709C137.129 198.709 154.522 191.255 161.021 191.064C167.52 190.872 169.622 192.975 171.916 196.415C174.21 199.856 172.681 204.825 168.093 209.413C163.506 214 154.331 219.161 147.068 221.837L137.129 198.709Z" fill="#FFAC43"/>
<path d="M92.5947 199.665L66.0266 211.707C66.0266 211.707 56.2786 216.294 59.9102 224.895C63.5418 233.496 75.9658 229.865 75.9658 229.865L105.783 216.676C105.783 216.676 108.268 196.416 92.5947 199.665Z" fill="#FFAC43"/>
<path d="M142.863 192.21C142.863 192.21 154.905 220.117 158.919 239.995C162.933 259.873 163.315 272.87 151.847 274.017C140.378 275.164 132.351 265.99 128.719 258.153C128.719 258.153 113.81 259.682 108.459 257.962C108.459 257.962 104.445 268.665 93.1675 272.488C81.8904 276.311 73.0981 270.577 73.2892 255.859C73.4803 241.142 83.6106 213.809 97.5637 192.019C97.5637 192.019 143.246 192.593 142.863 192.21Z" fill="url(#paint13_linear_383_3285)"/>
<path d="M108.459 257.962C108.459 257.962 95.6301 242.521 103.732 210.62H132.089C132.089 210.62 141.555 232.769 128.72 258.153" fill="#F7E3D0"/>
<path d="M178.244 168.77C183.867 174.76 179.462 185.572 181.324 194.912C181.324 194.912 178.758 195.578 175.985 192.556C172.575 201.637 162.505 203.161 162.017 211.126C159.909 211.466 158.484 210.044 157.949 206.321C152.748 212.377 134.203 216.014 120.356 228.299C106.512 216.014 87.964 212.377 82.7664 206.321C82.2307 210.044 80.8056 211.466 78.6984 211.126C78.2096 203.161 68.1404 201.637 64.7296 192.556C61.9569 195.578 59.3885 194.912 59.3885 194.912C61.2527 185.572 56.8477 174.76 62.4706 168.77C59.557 168.179 58.0408 166.721 57.8281 164.456C62.2855 161.319 64.6247 157.949 68.3696 149.626C68.7258 148.838 69.0932 148.007 69.4743 147.129C71.0678 142.685 72.8381 138.692 74.7795 135.132C84.1224 117.965 97.3759 110.81 113.62 111.315C113.112 109.18 111.792 107.935 110.21 106.979C115.531 106.267 118.533 108.136 120.356 111.315C122.182 108.136 125.184 106.267 130.505 106.979C128.92 107.935 127.603 109.18 127.095 111.315C146.708 110.705 161.961 121.263 171.238 147.129C175.668 157.311 178.007 161.023 182.887 164.456C182.674 166.721 181.158 168.179 178.244 168.77Z" fill="url(#paint14_linear_383_3285)"/>
<path d="M82.7662 206.32C92.6263 213.51 113.462 221.904 120.358 228.298V219.385C114.315 213.615 101.418 211.25 92.5852 208.251C83.7522 205.252 82.2322 199.24 82.2322 199.24C80.3546 203.879 77.8562 202.969 75.2754 201.322C75.2754 201.322 80.7121 206.32 79.2742 210.634C79.2742 210.634 82.3965 209.894 82.7662 206.32Z" fill="#722A09"/>
<path d="M88.6408 138.888C88.6408 138.888 71.8921 156.78 76.8888 183.092L83.7108 176.906L88.6408 138.888Z" fill="#722A09"/>
<path d="M61.4851 185.244C61.4851 185.244 62.074 189.133 63.7447 189.435C65.4155 189.736 69.8525 182.697 69.8525 182.697C67.4663 189.11 67.199 194.725 69.8525 199.24L64.7307 192.557L61.0332 193.406C61.8836 191.636 61.2797 188.216 61.4851 185.244Z" fill="#A54514"/>
<path d="M78.235 145.201C78.235 145.201 75.1916 149.717 68.3701 149.626C68.7264 148.838 69.0937 148.007 69.4748 147.129C71.0683 142.685 72.8386 138.692 74.7801 135.132L78.235 145.201Z" fill="#722A09"/>
<path d="M157.949 206.32C148.089 213.51 127.253 221.904 120.357 228.298V219.385C126.4 213.615 139.297 211.25 148.13 208.251C156.963 205.252 158.483 199.24 158.483 199.24C160.361 203.879 162.859 202.969 165.44 201.322C165.44 201.322 160.003 206.32 161.441 210.634C161.441 210.634 158.319 209.894 157.949 206.32Z" fill="#722A09"/>
<path d="M152.074 138.888C152.074 138.888 168.823 156.78 163.826 183.092L157.004 176.906L152.074 138.888Z" fill="#722A09"/>
<path d="M179.231 185.244C179.231 185.244 178.642 189.133 176.971 189.435C175.3 189.736 170.863 182.697 170.863 182.697C173.249 189.11 173.517 194.725 170.863 199.24L175.985 192.557L179.683 193.406C178.832 191.636 179.436 188.216 179.231 185.244Z" fill="#A54514"/>
<path d="M181.81 163.659C181.833 163.678 177.053 166.921 171.137 162.648C171.137 162.648 172.082 166.236 174.793 167.564C177.505 168.893 181.551 167.266 181.551 167.266L182.887 164.456L181.81 163.659Z" fill="#A54514"/>
<path d="M162.48 145.201C162.48 145.201 165.524 149.717 172.345 149.626C171.989 148.838 171.622 148.007 171.241 147.129C169.647 142.685 167.877 138.692 165.935 135.132L162.48 145.201Z" fill="#722A09"/>
<path d="M120.419 194.665L120.344 194.66L120.375 194.385L120.449 194.391L120.419 194.665Z" fill="#640000"/>
<path d="M120.296 194.665L120.267 194.391L120.343 194.385L120.375 194.66C120.359 194.662 120.343 194.663 120.327 194.663L120.296 194.665Z" fill="#640000"/>
<path d="M120.357 229.128C120.161 229.128 119.964 229.059 119.807 228.919C112.141 222.118 102.904 217.949 95.482 214.599C90.2221 212.225 85.9131 210.28 83.2811 207.998C82.8729 209.59 82.2342 210.691 81.3458 211.344C80.5694 211.914 79.6346 212.117 78.5672 211.945C78.1845 211.883 77.8959 211.564 77.8721 211.178C77.6372 207.361 74.9529 205.124 71.8449 202.534C69.197 200.327 66.2267 197.852 64.4356 193.995C61.7099 196.329 59.2947 195.744 59.1824 195.715C58.7567 195.605 58.4913 195.182 58.5772 194.751C59.279 191.231 59.0617 187.448 58.8517 183.791C58.5364 178.301 58.237 173.09 61.014 169.237C58.0044 168.215 57.157 166.168 57.0036 164.533C56.9758 164.238 57.1087 163.949 57.3519 163.778C61.9583 160.536 64.1886 157.207 68.7049 146.824C73.263 134.125 79.4727 124.643 87.1619 118.64C94.1177 113.21 102.488 110.462 112.06 110.462C112.195 110.462 112.329 110.462 112.464 110.464C111.97 109.363 111.123 108.499 109.782 107.69C109.481 107.509 109.327 107.157 109.398 106.812C109.47 106.468 109.751 106.206 110.1 106.159C114.734 105.538 118.105 106.729 120.357 109.795C122.609 106.729 125.98 105.539 130.615 106.159C130.964 106.206 131.245 106.468 131.316 106.812C131.388 107.157 131.234 107.509 130.933 107.69C129.591 108.498 128.745 109.363 128.251 110.464C128.386 110.462 128.52 110.462 128.655 110.462C138.227 110.462 146.597 113.209 153.553 118.64C161.242 124.643 167.452 134.125 172.01 146.824C176.526 157.207 178.757 160.537 183.363 163.778C183.606 163.95 183.739 164.238 183.711 164.534C183.558 166.168 182.71 168.215 179.701 169.237C182.478 173.09 182.178 178.301 181.863 183.791C181.653 187.448 181.436 191.231 182.138 194.751C182.223 195.182 181.958 195.605 181.533 195.715C181.419 195.744 179.006 196.329 176.279 193.995C174.488 197.852 171.518 200.327 168.87 202.534C165.762 205.124 163.078 207.361 162.843 211.178C162.819 211.564 162.531 211.883 162.148 211.945C161.08 212.116 160.145 211.914 159.369 211.344C158.48 210.691 157.842 209.59 157.434 207.998C154.802 210.28 150.493 212.225 145.233 214.599C137.81 217.949 128.574 222.118 120.907 228.919C120.75 229.059 120.554 229.128 120.357 229.128ZM82.766 205.491C83.0039 205.491 83.2349 205.594 83.3948 205.78C85.5598 208.303 90.4737 210.52 96.1639 213.088C103.513 216.405 112.618 220.515 120.357 227.199C128.096 220.515 137.201 216.405 144.551 213.088C150.241 210.52 155.155 208.303 157.32 205.78C157.532 205.534 157.868 205.433 158.18 205.524C158.492 205.615 158.722 205.88 158.769 206.202C159.048 208.137 159.595 209.453 160.35 210.009C160.614 210.202 160.915 210.312 161.261 210.34C161.81 206.26 164.729 203.828 167.809 201.261C170.687 198.863 173.662 196.383 175.209 192.266C175.31 191.996 175.544 191.799 175.826 191.744C176.11 191.69 176.4 191.785 176.594 191.997C178.112 193.649 179.513 194.059 180.345 194.134C179.807 190.696 180.011 187.142 180.209 183.696C180.532 178.063 180.838 172.743 177.64 169.337C177.434 169.118 177.363 168.805 177.454 168.518C177.545 168.232 177.785 168.018 178.079 167.958C181.007 167.364 181.776 165.986 181.997 164.838C177.085 161.252 174.655 157.061 170.479 147.46C170.472 147.443 170.465 147.426 170.459 147.409C161.721 123.044 147.543 111.509 127.121 112.143C126.866 112.151 126.616 112.038 126.453 111.839C126.29 111.638 126.229 111.374 126.289 111.123C126.656 109.58 127.415 108.471 128.245 107.657C124.944 107.684 122.638 109.005 121.076 111.727C120.928 111.985 120.654 112.143 120.357 112.143C120.06 112.143 119.786 111.985 119.639 111.727C118.077 109.006 115.771 107.684 112.47 107.657C113.3 108.472 114.059 109.58 114.426 111.123C114.485 111.374 114.425 111.639 114.262 111.839C114.099 112.038 113.851 112.153 113.594 112.143C93.1675 111.509 78.9938 123.044 70.2555 147.409C70.2493 147.426 70.2425 147.443 70.2355 147.46C66.0602 157.061 63.6304 161.252 58.7178 164.838C58.9384 165.986 59.7078 167.364 62.6356 167.958C62.9301 168.018 63.1693 168.232 63.2603 168.518C63.3515 168.805 63.2805 169.118 63.0751 169.337C59.877 172.743 60.1826 178.063 60.506 183.696C60.7041 187.142 60.9082 190.697 60.3691 194.135C61.1981 194.06 62.6005 193.652 64.1201 191.997C64.3147 191.785 64.6052 191.69 64.8884 191.744C65.171 191.799 65.4048 191.996 65.506 192.266C67.0523 196.383 70.0279 198.863 72.9059 201.261C75.986 203.828 78.905 206.26 79.454 210.34C79.8001 210.312 80.1008 210.202 80.3643 210.009C81.1202 209.453 81.6671 208.137 81.9459 206.202C81.9924 205.88 82.2227 205.615 82.5347 205.524C82.6111 205.502 82.6888 205.491 82.766 205.491Z" fill="#640000"/>
<path d="M104.305 123.011C100.206 123.073 96.1058 123.433 92.159 124.567C92.159 124.567 92.2402 123.029 92.2402 123.029C93.4671 123.544 94.6837 124.083 95.8966 124.631C96.2606 124.797 96.4215 125.226 96.256 125.59C96.0581 126.001 95.6018 126.036 95.2379 126.287C94.5716 126.672 93.9311 127.107 93.3396 127.603C92.531 128.263 91.8253 129.025 91.205 129.868C91.1027 130.019 90.8935 130.055 90.7486 129.944C90.6277 129.852 90.5911 129.69 90.652 129.558C90.8863 129.049 91.1481 128.542 91.4742 128.079C92.4551 126.657 93.7454 125.485 95.252 124.628C95.2521 124.628 95.29 125.969 95.29 125.969C94.0602 125.505 92.8333 125.034 91.6162 124.538C90.9119 124.276 90.9582 123.214 91.6708 123.009C93.7271 122.372 95.8675 122.01 98.0127 121.886C100.139 121.779 102.279 121.89 104.366 122.296C104.78 122.382 104.732 122.998 104.305 123.011Z" fill="#640000"/>
<path d="M136.349 122.296C140.54 121.505 144.936 121.759 149.018 123C149.763 123.202 149.81 124.265 149.099 124.538C147.882 125.034 146.655 125.505 145.426 125.969L145.463 124.628C146.487 125.204 147.369 125.915 148.172 126.757C148.955 127.574 149.606 128.525 150.064 129.558C150.137 129.717 150.067 129.906 149.908 129.98C149.77 130.043 149.61 129.999 149.522 129.883C148.451 128.407 147.056 127.191 145.478 126.287C145.262 126.165 145.02 126.038 144.826 125.952C144.46 125.79 144.295 125.363 144.456 124.997C144.538 124.811 144.687 124.682 144.864 124.611C145.462 124.339 146.064 124.076 146.665 123.808C147.263 123.537 147.872 123.289 148.475 123.029L148.557 124.567C146.597 124.017 144.598 123.622 142.573 123.389C140.53 123.136 138.477 123.059 136.411 123.011C135.99 123.001 135.93 122.38 136.349 122.296Z" fill="#640000"/>
<path d="M126.478 204.4H112.223C82.3201 202.713 65.203 188.671 73.3573 175.226C73.3878 174.857 73.4184 174.49 73.455 174.124C76.5514 139.894 90.5233 123.214 119.349 130.526C148.299 123.182 162.262 140.034 165.289 174.556C165.307 174.777 165.325 175.002 165.343 175.226C173.498 188.671 156.381 202.713 126.478 204.4Z" fill="url(#paint15_linear_383_3285)"/>
<path d="M126.478 204.399H112.223C82.3201 202.712 65.203 188.671 73.3573 175.225C73.3878 174.856 73.4184 174.49 73.455 174.124C73.8424 174.237 74.059 174.319 74.059 174.319C70.3799 188.745 88.8546 198.002 119.047 198.629C149.242 198.002 167.714 188.745 164.035 174.319L165.289 174.556C165.307 174.777 165.325 175.001 165.343 175.225C173.498 188.671 156.381 202.712 126.478 204.399Z" fill="#C46033"/>
<path d="M126.452 204.058C136.408 203.36 146.585 201.411 155.123 196.798C160.017 194.117 164.544 190.34 166.112 185.408C167.198 182.109 166.525 178.546 164.671 175.531C162.806 157.142 157.599 127.956 129.558 129.675C126.2 129.871 122.868 130.468 119.608 131.282C119.433 131.326 119.256 131.323 119.093 131.282C109.558 128.743 98.3656 128.615 90.4998 134.585C78.2545 143.764 75.4123 161.977 74.0809 175.278C74.0729 175.364 74.0435 175.446 74.0006 175.518C72.7363 177.618 71.962 179.955 72.038 182.315C72.0986 186.329 74.5185 190.002 77.7251 192.823C86.7986 200.486 99.9374 203.187 112.246 204.098C112.441 204.108 112.589 204.257 112.572 204.426C112.556 204.59 112.39 204.713 112.2 204.702C109.661 204.556 107.121 204.366 104.6 204.033C92.4935 202.448 77.0844 197.809 71.8949 187.339C71.3902 186.305 71.0434 185.157 70.8231 184.054C70.7762 183.743 70.7016 183.077 70.6647 182.774C70.6458 182.52 70.6578 181.756 70.6445 181.486C70.757 179.195 71.512 176.951 72.7124 174.935L72.6311 175.181C74.0305 159.134 77.9569 134.501 98.7147 129.061C105.568 127.31 112.877 128.078 119.608 129.769C119.608 129.769 119.094 129.769 119.094 129.769C125.821 128.066 133.136 127.304 139.989 129.052C160.749 134.482 164.702 159.133 166.103 175.179C166.103 175.179 166.018 174.922 166.018 174.922C167.221 176.941 167.978 179.189 168.091 181.485C168.095 181.777 168.072 182.493 168.071 182.776C168.054 183.105 167.942 183.728 167.913 184.058C167.853 184.47 167.695 184.91 167.619 185.321C167.543 185.598 167.289 186.267 167.197 186.554C162.659 197.13 147.873 201.97 135.996 203.805C132.86 204.298 129.68 204.562 126.504 204.742C125.977 204.757 125.937 204.096 126.452 204.058Z" fill="#640000"/>
<path d="M109.421 195.343C90.3547 189.19 92.0154 169.892 110.18 166.868C112.878 162.654 118.869 162.666 118.869 162.666C118.869 162.666 124.816 162.654 127.562 166.868C145.726 169.892 147.387 189.19 128.324 195.343C122.155 197.334 115.59 197.334 109.421 195.343Z" fill="white"/>
<path d="M104.007 151.709C104.007 151.709 98.508 148.223 94.5859 152.507C94.5859 152.507 100.606 143.856 104.007 151.709Z" fill="black"/>
<path d="M133.956 151.709C133.956 151.709 139.455 148.223 143.377 152.507C143.377 152.507 137.357 143.856 133.956 151.709Z" fill="black"/>
<path d="M138.324 164.146C140.981 164.146 143.135 161.993 143.135 159.336C143.135 156.679 140.981 154.525 138.324 154.525C135.667 154.525 133.514 156.679 133.514 159.336C133.514 161.993 135.667 164.146 138.324 164.146Z" fill="black"/>
<path d="M136.295 161.901C136.677 161.901 136.987 161.591 136.987 161.209C136.987 160.826 136.677 160.516 136.295 160.516C135.912 160.516 135.603 160.826 135.603 161.209C135.603 161.591 135.912 161.901 136.295 161.901Z" fill="white"/>
<path d="M138.201 160.963C139.096 160.963 139.822 160.237 139.822 159.342C139.822 158.446 139.096 157.72 138.201 157.72C137.306 157.72 136.58 158.446 136.58 159.342C136.58 160.237 137.306 160.963 138.201 160.963Z" fill="white"/>
<path d="M101.773 164.146C104.43 164.146 106.584 161.993 106.584 159.336C106.584 156.679 104.43 154.525 101.773 154.525C99.1166 154.525 96.9629 156.679 96.9629 159.336C96.9629 161.993 99.1166 164.146 101.773 164.146Z" fill="black"/>
<path d="M103.791 162.096C104.173 162.096 104.483 161.786 104.483 161.404C104.483 161.021 104.173 160.711 103.791 160.711C103.409 160.711 103.099 161.021 103.099 161.404C103.099 161.786 103.409 162.096 103.791 162.096Z" fill="white"/>
<path d="M101.884 161.157C102.779 161.157 103.505 160.432 103.505 159.536C103.505 158.641 102.779 157.915 101.884 157.915C100.988 157.915 100.263 158.641 100.263 159.536C100.263 160.432 100.988 161.157 101.884 161.157Z" fill="white"/>
<path d="M108.725 175.598C108.725 175.598 85.4751 169.138 77.7666 185.965" stroke="#640000" stroke-linecap="round" stroke-linejoin="round"/>
<path d="M111.029 179.401C111.029 179.401 93.2368 181.402 91.0234 195.557" stroke="#640000" stroke-linecap="round" stroke-linejoin="round"/>
<path d="M129.861 175.598C129.861 175.598 153.111 169.138 160.82 185.965" stroke="#640000" stroke-linecap="round" stroke-linejoin="round"/>
<path d="M125.692 179.119C125.692 179.119 143.484 181.121 145.697 195.276" stroke="#640000" stroke-linecap="round" stroke-linejoin="round"/>
<path d="M118.831 170.564V177.147C118.831 177.147 118.662 183.814 112.924 183.814C107.185 183.814 104.146 180.269 104.146 180.269" stroke="black" stroke-width="2" stroke-linecap="round" stroke-linejoin="round"/>
<path d="M119 170.564V177.147C119 177.147 119.169 183.814 124.908 183.814C130.647 183.814 133.685 180.269 133.685 180.269" stroke="black" stroke-width="2" stroke-linecap="round" stroke-linejoin="round"/>
<path d="M151.558 156.746C150.738 149.23 144.479 143.736 136.965 144.064C131.896 144.284 128.015 146.751 125.107 150.804C124.679 151.401 124.316 151.512 123.638 151.325C121.041 150.612 118.403 150.526 115.812 151.278C114.81 151.569 114.352 151.294 113.778 150.514C111.93 148.005 109.624 146.04 106.596 145.047C105.847 144.683 105.051 144.494 104.226 144.413C103.175 144.085 102.093 144.008 101.005 144.072C92.6265 144.567 86.5674 151.97 87.7414 160.266C87.7295 160.871 87.8476 161.448 88.1167 161.992C88.1267 162.096 88.1228 162.204 88.1487 162.305C89.9213 169.212 97.0847 173.905 104.335 172.912C111.458 171.936 116.622 165.875 116.523 158.607C116.495 156.501 116.861 156.099 119.017 155.906C119.838 155.832 120.622 155.997 121.395 156.279C122.247 156.589 122.745 157.052 122.574 158.061C122.488 158.568 122.607 159.109 122.634 159.634C122.635 160.373 122.692 161.102 123.001 161.788C123.034 162.03 123.042 162.278 123.103 162.513C125.152 170.301 132.846 174.158 139.965 172.776C147.704 171.272 152.417 164.615 151.558 156.746ZM109.759 169.288C103.12 173.849 93.4194 171.506 89.9991 163.138C89.8273 162.718 89.7297 162.259 89.3719 161.935C89.3302 161.908 89.2846 161.887 89.242 161.86C89.5224 161.283 89.4994 160.771 89.0181 160.36C89.0408 160.297 89.0695 160.241 89.0827 160.168C89.1697 159.433 89.1238 158.695 89.127 157.958C89.1535 151.79 93.79 146.541 99.8972 145.613C101.357 145.391 102.774 145.798 104.203 145.57C104.252 145.55 104.281 145.529 104.322 145.509C104.807 146.074 105.423 146.17 106.12 145.978C106.473 146.419 106.989 146.619 107.467 146.87C112.5 149.519 115.18 153.613 115.066 159.356C114.982 163.539 113.194 166.927 109.759 169.288ZM150.19 159.364C150.068 162.689 148.842 165.541 146.51 167.86C141.21 173.13 130.863 173.172 126.06 165.695C125.306 164.521 124.897 163.223 124.287 162.004C124.269 161.987 124.255 161.975 124.238 161.959C124.314 161.82 124.341 161.664 124.317 161.505C124.153 160.394 124.064 159.276 124.001 158.155C123.993 158.028 123.96 157.907 123.902 157.797C123.916 157.754 123.923 157.709 123.942 157.666C124.061 157.297 124.159 156.923 124.216 156.54C125.215 149.852 133.376 143.279 141.888 146.268C144.587 147.216 146.638 148.959 148.186 151.322C149.789 153.768 150.296 156.479 150.19 159.364Z" fill="#640000"/>
<path d="M119.746 151.848C121.017 151.753 122.269 151.849 123.498 152.219C123.999 152.37 124.082 152.564 123.879 153.04C123.535 153.843 123.474 154.893 122.908 155.443C122.263 156.071 121.497 155.021 120.689 154.955C119.362 154.848 118.082 154.907 116.87 155.447C116.278 155.711 116.055 155.542 115.922 154.982C115.841 154.642 115.703 154.316 115.583 153.987C115.206 152.945 115.547 152.308 116.607 152.076C117.019 151.987 117.433 151.882 117.851 151.858C118.481 151.821 119.114 151.848 119.746 151.848Z" fill="#FFAC43"/>
<path d="M115.548 170.323C115.548 170.323 122.314 170.483 122.633 170.323C122.953 170.163 126.735 166.967 126.469 165.369C126.202 163.771 121.765 162.666 118.87 162.666C115.975 162.666 112.841 163.185 111.318 165.902C111.318 165.902 111.873 168.938 115.548 170.323Z" fill="black"/>
<path d="M90.8356 126.988C87.8486 127.389 85.0867 128.734 82.7689 130.735C82.7504 130.748 82.7318 130.764 82.7152 130.779C81.6307 131.723 80.6433 132.809 79.7799 134.009C78.9267 135.193 78.1934 136.486 77.5985 137.862C76.7722 139.773 76.2186 141.839 75.9934 143.987C63.785 145.546 61.1822 131.196 68.8791 122.751C75.948 114.995 88.2865 115.777 90.8356 126.988Z" fill="#FFAC43"/>
<g opacity="0.6">
<path d="M90.5153 125.798C86.1546 117.957 75.5141 118.227 69.0711 125.296C66.4311 128.195 64.95 131.758 64.6091 135.179C64.165 131.099 65.5718 126.381 68.879 122.751C75.6896 115.278 87.3899 115.732 90.5153 125.798Z" fill="white"/>
</g>
<path d="M82.7704 130.998C82.7539 130.923 82.7353 130.849 82.7146 130.779C81.9627 128.176 78.3807 127.994 79.112 132.52L79.7792 134.009C79.3682 134.58 78.9839 135.177 78.6307 135.796C78.2506 136.459 77.9056 137.149 77.5979 137.862L75.5011 138.88C70.4773 139.166 69.2978 135.743 69.8597 132.336C70.1881 130.347 71.1115 128.366 72.2084 127.131C76.313 122.516 82.6506 121.849 82.7683 130.735C82.7704 130.822 82.7704 130.909 82.7704 130.998Z" fill="#F7E3D0"/>
<path d="M82.7701 130.998C82.7536 130.923 82.735 130.849 82.7143 130.779C81.9624 128.176 78.3805 127.994 79.1117 132.52L79.7789 134.01C79.3679 134.58 78.9836 135.177 78.6304 135.796C76.763 125.234 71.514 130.388 69.8594 132.336C70.1878 130.347 71.1112 128.366 72.2081 127.131C76.3127 122.516 82.6503 121.849 82.768 130.735C82.7701 130.822 82.7701 130.909 82.7701 130.998Z" fill="#EDB196"/>
<path d="M90.2299 127.126C89.2038 122.467 85.8285 118.805 80.9676 118.371C73.9204 117.69 67.4 123.308 65.6901 129.959C64.509 134.265 65.2878 139.7 69.3234 142.206C71.2969 143.422 73.6435 143.662 75.9498 143.643C76.1445 143.639 76.3049 143.797 76.3049 143.992C76.305 144.156 76.191 144.294 76.0377 144.331C74.8309 144.622 73.5555 144.711 72.2894 144.545C71.0243 144.381 69.7767 143.949 68.6689 143.273C61.7831 138.862 63.0604 128.514 67.7955 122.955C71.7097 118.086 78.859 115.287 84.7995 118.016C88.3483 119.595 90.6718 123.133 91.4385 126.851C91.5919 127.655 90.4348 127.913 90.2299 127.126Z" fill="#640000"/>
<path d="M78.8476 132.563C78.6057 131.593 78.4863 130.461 78.9738 129.499C79.315 128.75 80.2651 128.252 81.0883 128.44C82.2836 128.651 83.1293 129.764 83.3649 130.868L82.1603 130.997C82.1232 128.677 81.7967 125.538 79.367 124.6C76.5342 123.698 73.0171 126.517 71.6561 128.875C69.8509 131.903 69.016 137.516 73.5235 138.464C74.1572 138.607 74.8214 138.657 75.4885 138.644C75.6202 138.64 75.7298 138.745 75.7322 138.877C75.7345 139.002 75.6384 139.107 75.5153 139.118C73.3561 139.358 70.9397 138.743 69.9032 136.639C68.3918 133.54 69.7441 129.017 71.9527 126.564C73.8613 124.488 76.8076 122.516 79.766 123.442C82.7963 124.508 83.3892 128.229 83.3785 131.001C83.3681 131.734 82.3286 131.832 82.1741 131.125C81.866 129.451 79.9453 128.664 79.4842 130.698C79.3537 131.25 79.3407 131.865 79.3778 132.481C79.3945 132.804 78.9279 132.875 78.8476 132.563Z" fill="#640000"/>
<path d="M150.147 126.988C153.134 127.389 155.896 128.734 158.214 130.735C158.233 130.748 158.251 130.764 158.268 130.779C159.352 131.723 160.34 132.809 161.203 134.009C162.056 135.193 162.79 136.486 163.385 137.862C164.211 139.773 164.764 141.839 164.99 143.987C177.198 145.546 179.801 131.196 172.104 122.751C165.035 114.995 152.697 115.777 150.147 126.988Z" fill="#FFAC43"/>
<g opacity="0.6">
<path d="M150.468 125.798C154.828 117.957 165.469 118.227 171.912 125.296C174.552 128.195 176.033 131.758 176.374 135.179C176.818 131.099 175.411 126.381 172.104 122.751C165.293 115.278 153.593 115.732 150.468 125.798Z" fill="white"/>
</g>
<path d="M158.212 130.998C158.228 130.923 158.247 130.849 158.268 130.779C159.02 128.176 162.602 127.994 161.87 132.52L161.203 134.009C161.614 134.58 161.998 135.177 162.352 135.796C162.732 136.459 163.077 137.149 163.384 137.862L165.481 138.88C170.505 139.166 171.685 135.743 171.123 132.336C170.794 130.347 169.871 128.366 168.774 127.131C164.669 122.516 158.332 121.849 158.214 130.735C158.212 130.822 158.212 130.909 158.212 130.998Z" fill="#F7E3D0"/>
<path d="M158.212 130.998C158.228 130.923 158.247 130.849 158.268 130.779C159.02 128.176 162.602 127.994 161.87 132.52L161.203 134.01C161.614 134.58 161.998 135.177 162.352 135.796C164.219 125.234 169.468 130.388 171.123 132.336C170.794 130.347 169.871 128.366 168.774 127.131C164.669 122.516 158.332 121.849 158.214 130.735C158.212 130.822 158.212 130.909 158.212 130.998Z" fill="#EDB196"/>
<path d="M150.753 127.126C151.779 122.467 155.154 118.805 160.015 118.371C167.062 117.69 173.583 123.308 175.293 129.959C176.474 134.265 175.695 139.7 171.659 142.206C169.686 143.422 167.339 143.662 165.033 143.643C164.838 143.639 164.678 143.797 164.678 143.992C164.678 144.156 164.792 144.294 164.945 144.331C166.152 144.622 167.427 144.711 168.693 144.545C169.958 144.381 171.206 143.949 172.314 143.273C179.2 138.862 177.922 128.514 173.187 122.955C169.273 118.086 162.124 115.287 156.183 118.016C152.634 119.595 150.311 123.133 149.544 126.851C149.391 127.655 150.548 127.913 150.753 127.126Z" fill="#640000"/>
<path d="M162.135 132.563C162.377 131.593 162.496 130.461 162.008 129.499C161.667 128.75 160.717 128.252 159.894 128.44C158.699 128.651 157.853 129.764 157.617 130.868L158.822 130.997C158.859 128.677 159.185 125.538 161.615 124.6C164.448 123.698 167.965 126.517 169.326 128.875C171.131 131.903 171.966 137.516 167.459 138.464C166.825 138.607 166.161 138.657 165.494 138.644C165.362 138.64 165.252 138.745 165.25 138.877C165.248 139.002 165.344 139.107 165.467 139.118C167.626 139.358 170.042 138.743 171.079 136.639C172.59 133.54 171.238 129.017 169.029 126.564C167.121 124.488 164.175 122.516 161.216 123.442C158.186 124.508 157.593 128.229 157.604 131.001C157.614 131.734 158.654 131.832 158.808 131.125C159.116 129.451 161.037 128.664 161.498 130.698C161.628 131.25 161.642 131.865 161.604 132.481C161.588 132.804 162.054 132.875 162.135 132.563Z" fill="#640000"/>
<defs>
<filter id="filter0_d_383_3285" x="162" y="102" width="83.7402" height="56.5779" filterUnits="userSpaceOnUse" color-interpolation-filters="sRGB">
<feFlood flood-opacity="0" result="BackgroundImageFix"/>
<feColorMatrix in="SourceAlpha" type="matrix" values="0 0 0 0 0 0 0 0 0 0 0 0 0 0 0 0 0 0 127 0" result="hardAlpha"/>
<feOffset dx="-5" dy="6"/>
<feGaussianBlur stdDeviation="5"/>
<feComposite in2="hardAlpha" operator="out"/>
<feColorMatrix type="matrix" values="0 0 0 0 0.252401 0 0 0 0 0.0611564 0 0 0 0 0.300212 0 0 0 0.08 0"/>
<feBlend mode="normal" in2="BackgroundImageFix" result="effect1_dropShadow_383_3285"/>
<feBlend mode="normal" in="SourceGraphic" in2="effect1_dropShadow_383_3285" result="shape"/>
</filter>
<radialGradient id="paint0_radial_383_3285" cx="0" cy="0" r="1" gradientUnits="userSpaceOnUse" gradientTransform="translate(35.9159 195.643) rotate(0.371942) scale(25.2524 4.84651)">
<stop stop-color="#EE8000"/>
<stop offset="1" stop-color="#EE8000" stop-opacity="0"/>
</radialGradient>
<linearGradient id="paint1_linear_383_3285" x1="24.5706" y1="191.909" x2="35.689" y2="172.853" gradientUnits="userSpaceOnUse">
<stop stop-color="#8F8F90"/>
<stop offset="0.144" stop-color="#A3A3A4"/>
<stop offset="0.43883" stop-color="#D8D8D8"/>
<stop offset="0.63415" stop-color="white"/>
</linearGradient>
<linearGradient id="paint2_linear_383_3285" x1="15.1413" y1="186.53" x2="37.5305" y2="176.566" gradientUnits="userSpaceOnUse">
<stop stop-color="#B0480E"/>
<stop offset="1" stop-color="#F9C053"/>
</linearGradient>
<linearGradient id="paint3_linear_383_3285" x1="19.0491" y1="208.37" x2="56.5987" y2="199.508" gradientUnits="userSpaceOnUse">
<stop stop-color="#B0480E"/>
<stop offset="1" stop-color="#F9C053"/>
</linearGradient>
<linearGradient id="paint4_linear_383_3285" x1="29.149" y1="200.558" x2="71.9554" y2="184.366" gradientUnits="userSpaceOnUse">
<stop stop-color="#B0480E"/>
<stop offset="1" stop-color="#F9C053"/>
</linearGradient>
<linearGradient id="paint5_linear_383_3285" x1="31.3458" y1="202.827" x2="62.492" y2="195.59" gradientUnits="userSpaceOnUse">
<stop stop-color="#B0480E"/>
<stop offset="1" stop-color="#F9C053"/>
</linearGradient>
<linearGradient id="paint6_linear_383_3285" x1="34.4982" y1="173.012" x2="55.4349" y2="169.001" gradientUnits="userSpaceOnUse">
<stop stop-color="#B0480E"/>
<stop offset="1" stop-color="#F9C053"/>
</linearGradient>
<linearGradient id="paint7_linear_383_3285" x1="10.1732" y1="199.09" x2="43.9002" y2="189.178" gradientUnits="userSpaceOnUse">
<stop stop-color="#B0480E"/>
<stop offset="1" stop-color="#F9C053"/>
</linearGradient>
<linearGradient id="paint8_linear_383_3285" x1="28.8698" y1="212.11" x2="66.9752" y2="203.985" gradientUnits="userSpaceOnUse">
<stop stop-color="#B0480E"/>
<stop offset="1" stop-color="#F9C053"/>
</linearGradient>
<linearGradient id="paint9_linear_383_3285" x1="19.8605" y1="197.957" x2="52.2971" y2="191.115" gradientUnits="userSpaceOnUse">
<stop stop-color="#B0480E"/>
<stop offset="1" stop-color="#F9C053"/>
</linearGradient>
<linearGradient id="paint10_linear_383_3285" x1="26.3225" y1="188.779" x2="39.0711" y2="186.337" gradientUnits="userSpaceOnUse">
<stop stop-color="#B0480E"/>
<stop offset="1" stop-color="#F9C053"/>
</linearGradient>
<radialGradient id="paint11_radial_383_3285" cx="0" cy="0" r="1" gradientUnits="userSpaceOnUse" gradientTransform="translate(108.177 262.987) rotate(-15.3074) scale(24.6137 8.47328)">
<stop stop-color="#A54514"/>
<stop offset="1" stop-color="#A54514" stop-opacity="0"/>
</radialGradient>
<radialGradient id="paint12_radial_383_3285" cx="0" cy="0" r="1" gradientUnits="userSpaceOnUse" gradientTransform="translate(162.247 262.987) rotate(-15.3074) scale(24.6137 8.47328)">
<stop stop-color="#A54514"/>
<stop offset="1" stop-color="#A54514" stop-opacity="0"/>
</radialGradient>
<linearGradient id="paint13_linear_383_3285" x1="117.379" y1="193.65" x2="117.379" y2="274.385" gradientUnits="userSpaceOnUse">
<stop stop-color="#F47A3F"/>
<stop offset="1" stop-color="#FFAC43"/>
</linearGradient>
<linearGradient id="paint14_linear_383_3285" x1="120.358" y1="106.828" x2="120.358" y2="228.299" gradientUnits="userSpaceOnUse">
<stop stop-color="#BB5530"/>
<stop offset="1" stop-color="#90411E"/>
</linearGradient>
<linearGradient id="paint15_linear_383_3285" x1="108.29" y1="198.626" x2="121.714" y2="169.86" gradientUnits="userSpaceOnUse">
<stop stop-color="#F47A3F"/>
<stop offset="1" stop-color="#FFAC43"/>
</linearGradient>
</defs>
</svg>
