<svg width="25" height="24" viewBox="0 0 25 24" fill="none" xmlns="http://www.w3.org/2000/svg">
<path fill-rule="evenodd" clip-rule="evenodd" d="M12.5 4C8.08172 4 4.5 7.58172 4.5 12C4.5 14.002 5.23541 15.8323 6.45082 17.2354C7.5432 14.9965 9.84104 13.4544 12.5002 13.4544C15.1618 13.4544 17.4578 14.9965 18.5496 17.235C19.7647 15.8319 20.5 14.0018 20.5 12C20.5 7.58172 16.9183 4 12.5 4ZM16.9696 18.636C16.3296 16.7838 14.5713 15.4544 12.5002 15.4544C10.4313 15.4544 8.67101 16.7841 8.03082 18.6362C9.3069 19.4973 10.8447 20 12.5 20C14.1554 20 15.6934 19.4972 16.9696 18.636ZM2.5 12C2.5 6.47715 6.97715 2 12.5 2C18.0228 2 22.5 6.47715 22.5 12C22.5 17.5228 18.0228 22 12.5 22C6.97715 22 2.5 17.5228 2.5 12ZM12.5003 8.09075C11.697 8.09075 11.0458 8.74197 11.0458 9.54529C11.0458 10.3486 11.697 10.9998 12.5003 10.9998C13.3036 10.9998 13.9549 10.3486 13.9549 9.54529C13.9549 8.74197 13.3036 8.09075 12.5003 8.09075ZM9.04577 9.54529C9.04577 7.6374 10.5924 6.09075 12.5003 6.09075C14.4082 6.09075 15.9549 7.6374 15.9549 9.54529C15.9549 11.4532 14.4082 12.9998 12.5003 12.9998C10.5924 12.9998 9.04577 11.4532 9.04577 9.54529Z" fill="#FF8C2F"/>
</svg>
